<svg xmlns="http://www.w3.org/2000/svg" viewBox="0 0 50 50"><defs><style>.cls-1{fill:#fff;}.cls-2{fill:#ff0;}.cls-3{fill:#d0004c;}</style></defs><title>oop2icon</title><g id="Layer_2" data-name="Layer 2"><path class="cls-1" d="M46.41,23.6c-.19,0-.32.08-.46.09a1.41,1.41,0,0,1-.53-.09c-.22-.08-.47,0-.72-.1s-.53,0-.77-.12c-.69.08-1.36-.13-2-.1a.72.72,0,0,1-.53-.09c-.07-.07-.27,0-.32-.07s-.2.13-.33,0a.53.53,0,0,0-.34,0A10.54,10.54,0,0,0,39.23,23c-.1-.21-.24.12-.31,0s-.24,0-.37,0c-.38-.11-.78-.14-1.17-.25a3.12,3.12,0,0,0-.44-.05,1.53,1.53,0,0,0-.41-.1.67.67,0,0,1-.35-.06,1.45,1.45,0,0,0-.68-.1s-.06,0-.08,0V22.2c.3-.1.63-.18.93-.31a10.5,10.5,0,0,0,1.31-.9.77.77,0,0,1,.48-.55c.31-.12.24-.44.45-.59l0,0c.22-.37.57-.62.81-.95a2.36,2.36,0,0,1,.34-.3c.12-.11.18-.3.39-.29.29-.31.73-.4,1.06-.65a.89.89,0,0,1,.34-.16,5.57,5.57,0,0,0,2.24-1.12,4.46,4.46,0,0,0,1.29-1.71L45,14.5c-.07.07-.17.12-.2.21a2.37,2.37,0,0,1-.59.67,1.61,1.61,0,0,1-.52.34,3.07,3.07,0,0,1-1,.22,2.26,2.26,0,0,0-.42.09,2.2,2.2,0,0,0-.44,0c-.14.06-.26-.16-.38,0s-.25.06-.37.09-.25.1-.37.09a4.51,4.51,0,0,0-1.26.28c-.27,0-.46.25-.69.33a6.25,6.25,0,0,0-1.6.93,2,2,0,0,1-.58.33c-.21,0-.47,0-.63.19s-.48,0-.64.19a2.17,2.17,0,0,0-1,.1c-.22-.19-.48,0-.72-.1a1.31,1.31,0,0,1-.28-.12,2.58,2.58,0,0,0,.41-.5c.11-.23.31-.38.42-.6a16.61,16.61,0,0,1,1.22-1.79,9.1,9.1,0,0,0,.62-.87c.49-.84,1-1.66,1.54-2.47.29-.43.61-.83.93-1.24s.66-1,1-1.43.46-.66.67-1a.58.58,0,0,0,0-.26.33.33,0,0,0-.39.09,2.46,2.46,0,0,1-.63.58c-.29.13-.47.4-.76.51-.52.58-1.26.89-1.79,1.47a5.28,5.28,0,0,1-.57.47c-.16.13-.37.2-.52.34-.45.39-.89.81-1.33,1.22a1,1,0,0,1-.18.18,15.48,15.48,0,0,0-2.13,1.73c-.19.17-.35.37-.51.53l-.29,0a4,4,0,0,1,.27-.69c.12-.23,0-.47.13-.71s0-.51,0-.76a19.63,19.63,0,0,0-.21-2.31s0-.08-.07-.13,0-.15,0-.18c.17-.27.06-.56.09-.83a1.76,1.76,0,0,1,.07-.33,3.05,3.05,0,0,1,.43-.89,10.15,10.15,0,0,1,.93-1.17V7l.17-.17A2.13,2.13,0,0,1,33,6.09c.1-.16,0-.32.11-.47a1,1,0,0,0,.07-.48c0-.4-.06-.79-.1-1.18,0,0,0,0-.07-.1L32.74,4a1.23,1.23,0,0,0,.06.44c.08.16-.07.25-.06.39a1.26,1.26,0,0,1-.28.8,11.82,11.82,0,0,1-.77,1c-.11.12-.16.29-.33.39a.71.71,0,0,0-.33.4c-.37,0-.37.53-.71.6a1.64,1.64,0,0,1-.32.54,2,2,0,0,0-.29.59,4,4,0,0,0-.21.83c0,.21-.07.41-.1.62s-.07.41-.11.62a3.9,3.9,0,0,1-.64,1.63A4.41,4.41,0,0,1,27.58,14l-.75.48a1.71,1.71,0,0,0,0-.52,2,2,0,0,1-.18-.89c0-.32-.13-.61-.11-.92a2,2,0,0,0-.15-.81,1.27,1.27,0,0,1-.06-.18,4.07,4.07,0,0,0-.09-1,6.63,6.63,0,0,0-.1-.87A2.46,2.46,0,0,1,26,8.53a6.06,6.06,0,0,0-.09-.73c-.07-.3,0-.61-.1-.93s0-.61-.11-.92,0-.7-.13-1c-.05-.16,0-.32-.07-.49a3.87,3.87,0,0,1-.12-.77c0-.12-.08-.24-.1-.37s0-.29,0-.44c-.3,0-.31.27-.38.42s0,.38-.09.58.05.42-.11.61c.19.11,0,.21,0,.33s0,.33,0,.45a1.14,1.14,0,0,0-.1.47c0,.16-.08.31-.09.47,0,.41-.07.82-.11,1.24,0,0,0,.08,0,.09-.21.15,0,.44-.18.59,0,.2-.14.38,0,.58-.2.24-.1.56-.18.84a4.91,4.91,0,0,0-.13,1.22.74.74,0,0,1,0,.21,8,8,0,0,0-.3,1.81c0,.05,0,.13,0,.15s-.07.31-.1.47a2,2,0,0,0-.09.47,1,1,0,0,1-.17.56,3.1,3.1,0,0,0-.75-1.07,9.88,9.88,0,0,0-1.54-1.19c-.2-.14-.47-.25-.57-.45s-.28-.24-.42-.36-.19-.12-.27-.2l-1.08-1.08c-.08-.08-.14-.19-.21-.27a3.72,3.72,0,0,1-.61-1.38c-.18-.49-.21-1-.41-1.52a4.27,4.27,0,0,0-.38-1,3.16,3.16,0,0,0-1.34-1.27c-.06,0-.09-.13-.13-.18l-.32.2a.55.55,0,0,0,.49.34,3.45,3.45,0,0,1,.85,1.17,3.17,3.17,0,0,0,0,.53,3.46,3.46,0,0,1,.17,1c0,.59,0,1.19,0,1.78a2.43,2.43,0,0,0,.17.85,6,6,0,0,0,.69,1.36,14,14,0,0,0,1,1.32,5.23,5.23,0,0,1,.86,1.38,4.08,4.08,0,0,1,.19,1.17c0,.26-.18.34-.23.53s-.27.36-.54.18c-.43-.29-.89-.51-1.3-.83-.25-.19-.54-.33-.8-.51s-.64-.27-.84-.58c0,0-.1,0-.13,0-.22-.16-.47-.27-.69-.45s-.56-.38-.81-.62a5.42,5.42,0,0,0-.56-.37c-.52-.38-1-.78-1.57-1.14-.12-.08-.17-.23-.29-.26a3.51,3.51,0,0,1-.94-.58c-.36-.24-.69-.53-1.05-.77a12.14,12.14,0,0,1-1-.79H8.5l.23.51c.11.25.37.37.5.6a3.12,3.12,0,0,0,.54.75,4.28,4.28,0,0,1,.69.78,3.33,3.33,0,0,0,.54.65,7.93,7.93,0,0,1,.93,1.15c.1.14.15.31.26.45.31.38.77.63,1,1.14,0,.11.21.13.28.28s.24.24.35.37.37.42.54.64.4.55.62.82L16,18.76c-.08,0-.11,0-.14,0-.34-.13-.67-.26-1-.38s-.76-.11-1.13-.23a7.45,7.45,0,0,0-2,.11,2.26,2.26,0,0,1-.42.09c-.14,0-.28.07-.42.1s-.28.14-.36.09-.45-.06-.68-.09a1.43,1.43,0,0,1-.27-.09c-.63-.19-1.1-.68-1.71-.91a4.07,4.07,0,0,0-.58-.22,2.82,2.82,0,0,0-1.19-.21S6,17,6,17a1.93,1.93,0,0,0-.48,0,4,4,0,0,0-.49.16c-.23.08-.23.08-.2.43l.46-.12c.18-.05.31.08.47.11a2.5,2.5,0,0,1,1.4.68c0,.05.09.11.15.13a1.58,1.58,0,0,1,.7.52,1.42,1.42,0,0,1,.28.2c.27.32.72.38.91.67a5.93,5.93,0,0,0,.59.14,7,7,0,0,1,1.44.09c.23.07.5,0,.72.12a4,4,0,0,1,1.6.56,3.2,3.2,0,0,1,.75.53,1.21,1.21,0,0,1,.22.32s.07.09.11.1c.32.07.35.41.56.59s.08.35.13.61a2,2,0,0,0-.26-.15c-.17.21-.48,0-.63.19-.35,0-.69.08-1,.1a3.16,3.16,0,0,0-.76,0c-.22.09-.45,0-.62.1a1.64,1.64,0,0,1-.68.09c-.05,0-.13,0-.15,0-.19.21-.47.06-.7.18a2.6,2.6,0,0,1-.66.11,4,4,0,0,1-.77,0,.74.74,0,0,0-.3,0c-.34.21-.73.05-1.1.18s-.68,0-1,.11-.48,0-.73.1-.5-.05-.72.12a7.68,7.68,0,0,0-1.35.18c-.42,0-.78.25-1.21.25.06.36.37.35.54.36.52.06,1,.15,1.55.24a3.46,3.46,0,0,0,.72.09c.11.21.34.06.5.16s.4,0,.59,0c.45.09.9.15,1.35.2.09,0,.17.09.26.09.31,0,.61,0,.92,0s.62.07.93.1l1.23.1h0c.15.19.35.07.52.11l.52.1.45,0,.44.06c.09.26.26,0,.41.07a1,1,0,0,0,.55.12,10.55,10.55,0,0,1,1,.15,3.57,3.57,0,0,1-.69.36c-.24.06-.29.43-.57.31-.28.21-.44.54-.77.66,0,.24-.38.15-.33.42a11.6,11.6,0,0,1-1.51,1.92c-.09.08-.14.23-.23.27a2.24,2.24,0,0,0-.66.52s-.11,0-.15,0a4,4,0,0,1-1.36.29,4.28,4.28,0,0,0-1.28.36,3.93,3.93,0,0,0-.94.57,3.64,3.64,0,0,0-1.12,1.09.43.43,0,0,0-.09.26,1.28,1.28,0,0,0,.12.32c.07-.11.09-.21.15-.23s.18-.17.25-.31.21-.53.52-.59.36-.16.53-.2.64-.3,1-.22.52-.06.75.09c.6,0,1.19.17,1.79.1.13,0,.28.05.37-.1.28.06.45-.26.69-.22.22-.17.41-.32.61-.46s.28-.15.35-.26a2.2,2.2,0,0,1,.84-.68,4.23,4.23,0,0,1,2.14-.62c.44,0,.89.06,1.33.09l.26,0c-.26.52-.64.9-.89,1.37a4.59,4.59,0,0,0-.27.6c-.08.24-.32.37-.4.6a2.42,2.42,0,0,1-.44.74c-.17.23-.23.52-.42.74s-.32.65-.65.86c-.07,0,0,.22-.11.3-.47.5-.72,1.16-1.23,1.64,0,.24-.32.28-.32.52-.38.51-.72,1.05-1.13,1.53a17.18,17.18,0,0,0-1.13,1.6l.14.2a2.54,2.54,0,0,0,.32-.21l1.72-1.51c.06,0,.15-.07.21-.12.25-.21.56-.32.81-.51.65-.51,1.25-1.09,1.87-1.64a1.1,1.1,0,0,1,.23-.2,8.14,8.14,0,0,0,1.23-1.19,2.77,2.77,0,0,0,.24-.25c.16-.23.43-.31.62-.48.52-.48,1-1,1.57-1.49,0,.1,0,.15,0,.16a1.82,1.82,0,0,0-.4.75,8,8,0,0,0-.4,1.26c-.06.3,0,.62,0,.92s.16.54,0,.82A10.33,10.33,0,0,1,18.46,39s-.07.07-.08.12a3.14,3.14,0,0,1-.53,1.16c0,.25-.22.32-.29.49a1.45,1.45,0,0,1-.31.5,4.26,4.26,0,0,0-.92,1.91,3.82,3.82,0,0,0,0,.76c0,.26.12.48.11.72s.17.44.25.63H17c-.08-.17-.17-.32-.23-.48s0-.25-.08-.37a2,2,0,0,1,.1-1.21,12.8,12.8,0,0,1,.7-1.19,2,2,0,0,1,.54-.64,5,5,0,0,0,.6-.52c.05,0,.09-.1.15-.14a6.74,6.74,0,0,0,1.67-1.7,2.06,2.06,0,0,0,.45-1.35,4.43,4.43,0,0,1,.22-1.23c0-.08.08-.15.07-.22a1.78,1.78,0,0,1,.37-.92,3.17,3.17,0,0,1,.46-.58,3.47,3.47,0,0,1,.4-.46,6.66,6.66,0,0,0,.56-.5s.07,0,.16,0a4.43,4.43,0,0,0,.08.8c.1.38.05.79.13,1.18s.14.76.21,1.14c0,.07.07.14.08.22s0,.32,0,.38-.09.22.07.32.09.26.11.4a2.81,2.81,0,0,1,0,.41c.26.08-.07.29.09.39a5.91,5.91,0,0,1,.22,1.44c0,.05,0,.09,0,.14a3.4,3.4,0,0,1,.18,1c0,.5.06,1,.09,1.49,0,0,0,0,0,0a.46.46,0,0,1,.09.47c-.06.17.27.32,0,.48.18.28.08.63.21.93,0,.07.09.18.07.2-.17.17,0,.3,0,.44A1.19,1.19,0,0,1,25,46a1.07,1.07,0,0,1-.06.29h.25c0-.13,0-.28,0-.35s.05-.29.08-.43.08-.31.1-.47a2.25,2.25,0,0,1,.09-.67,2.85,2.85,0,0,0,.12-.72c0-.24.06-.48.1-.72s.08-.18.1-.27-.06-.17,0-.24c.17-.62.12-1.26.24-1.89,0-.22,0-.46.1-.67,0,0-.05-.1-.08-.16.2-.2.15-.48.22-.72a2.85,2.85,0,0,0,.18-1c0-.1-.05-.24,0-.3.29-.36.17-.81.28-1.21a5.45,5.45,0,0,0,.12-1.28c0-.14,0-.26.19-.31A.3.3,0,0,0,27,35a18.26,18.26,0,0,0,1.48,1.69,3.27,3.27,0,0,0,.36.25,5.68,5.68,0,0,1,.78.46,1.16,1.16,0,0,0,.53.29.6.6,0,0,1,.42.31c.05.06.08.18.14.19s.21.22.32.32.1.31.21.42a.89.89,0,0,1,.25.77s0,.12,0,.15.08.38.1.57a5.86,5.86,0,0,1,.1.58,3.72,3.72,0,0,0,.32,1.24A5.83,5.83,0,0,0,33.27,44a6.27,6.27,0,0,0,1,.83c.15.11.23.07.4-.19a.18.18,0,0,0,0-.07,3.68,3.68,0,0,1-.35-.15c-.12-.07-.26-.09-.32-.27s-.19-.15-.28-.23a.48.48,0,0,1-.12-.16,2.78,2.78,0,0,1-.41-1.46.54.54,0,0,0,0-.28c-.13-.31,0-.67-.15-1a.05.05,0,0,1,0,0c.12-.09.07-.22.07-.33A15.81,15.81,0,0,1,33,39a1,1,0,0,0,0-.14,9.12,9.12,0,0,1-.36-1.12,2.8,2.8,0,0,0-.79-1.45,4.79,4.79,0,0,1-1.11-1.84,2.5,2.5,0,0,1-.26-.77,8.55,8.55,0,0,0-.09-.87s0-.06,0-.09h.19c.16.14.3.38.46.39s.33.26.58.25.35.2.53.3c.77.41,1.35,1.1,2.15,1.45a3.28,3.28,0,0,1,.44.32c.15.1.33.19.49.29a3.2,3.2,0,0,1,.42.33,1.24,1.24,0,0,0,.5.28c.17,0,.25.2.37.3.44.34.92.58,1.37.89.25.18.5.36.76.51s.75.49,1.13.72.84.46,1.26.71a.3.3,0,0,0-.11-.38c-.36-.24-.46-.73-.89-.9,0-.23-.25-.31-.37-.46s-.26-.34-.39-.5-.26-.34-.4-.5-.53-.56-.75-.87c-.12-.16-.35-.26-.34-.51a.2.2,0,0,0-.13-.14c-.16,0-.27-.12-.28-.29s-.32-.06-.3-.28A12,12,0,0,0,36,33.19c-.42-.46-.74-1-1.15-1.47-.11-.13-.13-.36-.26-.44-.3-.19-.44-.52-.71-.74a2.71,2.71,0,0,1-.36-.57,2.83,2.83,0,0,0,1.64.46.74.74,0,0,1,.27.1c.09,0,.13-.19.23,0a3.08,3.08,0,0,0,1,0c.4-.14.82-.12,1.21-.27.21-.08.49,0,.66-.12s.51,0,.7-.19a.19.19,0,0,1,.19,0,.33.33,0,0,0,.32.09,1.83,1.83,0,0,1,1,.26,7.59,7.59,0,0,1,1.3,1A3.94,3.94,0,0,0,43.4,32c.18.06.36.11.54.19a2.44,2.44,0,0,0,.93.22h.61l.28-.34-.26-.14a2.87,2.87,0,0,1-.89.07,3.82,3.82,0,0,1-1.07-.79c-.43-.42-.68-1-1.15-1.37-.2-.47-.68-.66-1-1a.68.68,0,0,0-.37-.2c-.37-.08-.71-.25-1.09-.33a11.44,11.44,0,0,1-1.15-.18.56.56,0,0,0-.43.05.65.65,0,0,1-.53,0,1,1,0,0,0-.43-.08A2,2,0,0,1,37,28a4,4,0,0,1-1.56-.92,4,4,0,0,1-.64-1c.1-.07.18-.16.26-.17.36-.05.72-.06,1.08-.11a7.61,7.61,0,0,0,.87-.12c.5-.16,1-.23,1.52-.38a2.25,2.25,0,0,1,.93-.11,7,7,0,0,1,1.36-.29,4.38,4.38,0,0,1,.82-.11c.27,0,.5-.27.79-.11.11-.21.33-.05.5-.16a1,1,0,0,1,.54,0c.19,0,.35-.09.52-.1a4.3,4.3,0,0,0,.72-.1c.24,0,.46-.13.69-.19a1.89,1.89,0,0,1,.82-.13.28.28,0,0,0,.2,0,1.06,1.06,0,0,0,.17-.2Z"/><path d="M19.14,33.35c-.55.52-1.05,1-1.57,1.49-.19.17-.46.25-.62.48a2.77,2.77,0,0,1-.24.25,8.14,8.14,0,0,1-1.23,1.19,1.1,1.1,0,0,0-.23.2c-.62.55-1.22,1.13-1.87,1.64-.25.19-.56.3-.81.51-.06,0-.15.07-.21.12l-1.72,1.51a2.54,2.54,0,0,1-.32.21l-.14-.2a17.18,17.18,0,0,1,1.13-1.6c.41-.48.75-1,1.13-1.53,0-.24.32-.28.32-.52.51-.48.76-1.14,1.23-1.64.06-.08,0-.26.11-.3.33-.21.41-.59.65-.86s.25-.51.42-.74a2.42,2.42,0,0,0,.44-.74c.08-.23.32-.36.4-.6a4.59,4.59,0,0,1,.27-.6c.25-.47.63-.85.89-1.37l-.26,0c-.44,0-.89-.1-1.33-.09a4.23,4.23,0,0,0-2.14.62,2.2,2.2,0,0,0-.84.68c-.07.11-.23.17-.35.26s-.39.29-.61.46c-.24,0-.41.28-.69.22-.09.15-.24.08-.37.1-.6.07-1.19-.15-1.79-.1-.23-.15-.49,0-.75-.09s-.65.14-1,.22-.34.16-.53.2-.41.36-.52.59-.09.26-.25.31-.08.12-.15.23a1.28,1.28,0,0,1-.12-.32.43.43,0,0,1,.09-.26,3.64,3.64,0,0,1,1.12-1.09,3.93,3.93,0,0,1,.94-.57,4.28,4.28,0,0,1,1.28-.36,4,4,0,0,0,1.36-.29s.1,0,.15,0a2.24,2.24,0,0,1,.66-.52c.09,0,.14-.19.23-.27a11.6,11.6,0,0,0,1.51-1.92c-.05-.27.35-.18.33-.42.33-.12.49-.45.77-.66.28.12.33-.25.57-.31a3.57,3.57,0,0,0,.69-.36,10.55,10.55,0,0,0-1-.15,1,1,0,0,1-.55-.12c-.15-.1-.32.19-.41-.07l-.44-.06-.45,0-.52-.1c-.17,0-.37.08-.52-.11h0L10,25.73c-.31,0-.62-.08-.93-.1s-.61,0-.92,0c-.09,0-.17-.08-.26-.09-.45-.05-.9-.11-1.35-.2-.19,0-.43,0-.59,0s-.39,0-.5-.16A3.46,3.46,0,0,1,4.71,25c-.52-.09-1-.18-1.55-.24-.17,0-.48,0-.54-.36.43,0,.79-.21,1.21-.25A7.68,7.68,0,0,1,5.18,24c.22-.17.51,0,.72-.12s.5,0,.73-.1.71,0,1-.11.76,0,1.1-.18a.74.74,0,0,1,.3,0,4,4,0,0,0,.77,0,2.6,2.6,0,0,0,.66-.11c.23-.12.51,0,.7-.18,0,0,.1,0,.15,0a1.64,1.64,0,0,0,.68-.09c.17-.09.4,0,.62-.1a3.16,3.16,0,0,1,.76,0c.34,0,.68-.06,1-.1.15-.23.46,0,.63-.19a2,2,0,0,1,.26.15c-.05-.26,0-.51-.13-.61s-.24-.52-.56-.59c0,0-.08-.06-.11-.1a1.21,1.21,0,0,0-.22-.32,3.2,3.2,0,0,0-.75-.53,4,4,0,0,0-1.6-.56c-.22-.16-.49-.05-.72-.12a7,7,0,0,0-1.44-.09,5.93,5.93,0,0,1-.59-.14c-.19-.29-.64-.35-.91-.67A1.42,1.42,0,0,0,8,18.9a1.58,1.58,0,0,0-.7-.52c-.06,0-.1-.08-.15-.13a2.5,2.5,0,0,0-1.4-.68c-.16,0-.29-.16-.47-.11l-.46.12c0-.35,0-.35.2-.43A4,4,0,0,1,5.51,17,1.93,1.93,0,0,1,6,17s0,.06.07.06a2.82,2.82,0,0,1,1.19.21,4.07,4.07,0,0,1,.58.22c.61.23,1.08.72,1.71.91a1.43,1.43,0,0,0,.27.09c.23,0,.46,0,.68.09s.24-.06.36-.09.28-.08.42-.1a2.26,2.26,0,0,0,.42-.09,7.45,7.45,0,0,1,2-.11c.37.12.77.11,1.13.23s.68.25,1,.38c0,0,.06,0,.14,0l-1.09-1.31c-.22-.27-.41-.55-.62-.82S14,16.2,13.77,16s-.28-.22-.35-.37-.25-.17-.28-.28c-.18-.51-.64-.76-1-1.14-.11-.14-.16-.31-.26-.45A7.93,7.93,0,0,0,11,12.6a3.33,3.33,0,0,1-.54-.65,4.28,4.28,0,0,0-.69-.78,3.12,3.12,0,0,1-.54-.75c-.13-.23-.39-.35-.5-.6L8.5,9.31h.32a12.14,12.14,0,0,0,1,.79c.36.24.69.53,1.05.77a3.51,3.51,0,0,0,.94.58c.12,0,.17.18.29.26.54.36,1,.76,1.57,1.14a5.42,5.42,0,0,1,.56.37c.25.24.55.41.81.62s.47.29.69.45c0,0,.11,0,.13,0,.2.31.56.38.84.58s.55.32.8.51c.41.32.87.54,1.3.83.27.18.46.13.54-.18s.26-.27.23-.53a4.08,4.08,0,0,0-.19-1.17A5.23,5.23,0,0,0,18.55,13a14,14,0,0,1-1-1.32,6,6,0,0,1-.69-1.36,2.43,2.43,0,0,1-.17-.85c0-.59,0-1.19,0-1.78a3.46,3.46,0,0,0-.17-1,3.17,3.17,0,0,1,0-.53A3.45,3.45,0,0,0,15.66,5a.55.55,0,0,1-.49-.34l.32-.2s.07.15.13.18A3.16,3.16,0,0,1,17,5.93a4.27,4.27,0,0,1,.38,1c.2.49.23,1,.41,1.52a3.72,3.72,0,0,0,.61,1.38c.07.08.13.19.21.27l1.08,1.08c.08.08.19.12.27.2s.32.15.42.36.37.31.57.45a9.88,9.88,0,0,1,1.54,1.19,3.1,3.1,0,0,1,.75,1.07,1,1,0,0,0,.17-.56,2,2,0,0,1,.09-.47c0-.16-.07-.34.1-.47s0-.1,0-.15a8,8,0,0,1,.3-1.81.74.74,0,0,0,0-.21A4.91,4.91,0,0,1,24,9.52c.08-.28,0-.6.18-.84-.13-.2.06-.38,0-.58.21-.15,0-.44.18-.59,0,0,0-.06,0-.09,0-.42.06-.83.11-1.24,0-.16.07-.31.09-.47a1.14,1.14,0,0,1,.1-.47c.06-.12,0-.3,0-.45s.2-.22,0-.33c.16-.19,0-.45.11-.61s0-.4.09-.58.08-.4.38-.42c0,.15,0,.3,0,.44s.08.25.1.37a3.87,3.87,0,0,0,.12.77c.06.17,0,.33.07.49.1.33,0,.7.13,1s0,.63.11.92,0,.63.1.93a6.06,6.06,0,0,1,.09.73,2.46,2.46,0,0,0,.11.72,6.63,6.63,0,0,1,.1.87,4.07,4.07,0,0,1,.09,1,1.27,1.27,0,0,0,.06.18,2,2,0,0,1,.15.81c0,.31.15.6.11.92a2,2,0,0,0,.18.89,1.71,1.71,0,0,1,0,.52l.75-.48a4.41,4.41,0,0,0,1.07-1.17,3.9,3.9,0,0,0,.64-1.63c0-.21.08-.41.11-.62s.07-.41.1-.62a4,4,0,0,1,.21-.83A2,2,0,0,1,30,8.54,1.64,1.64,0,0,0,30.32,8c.34-.07.34-.55.71-.6a.71.71,0,0,1,.33-.4c.17-.1.22-.27.33-.39a11.82,11.82,0,0,0,.77-1,1.26,1.26,0,0,0,.28-.8c0-.14.14-.23.06-.39A1.23,1.23,0,0,1,32.74,4L33,3.86c0,.05.07.07.07.1,0,.39.08.78.1,1.18a1,1,0,0,1-.07.48c-.07.15,0,.31-.11.47a2.13,2.13,0,0,0-.16.73L32.65,7V7.3a10.15,10.15,0,0,0-.93,1.17,3.05,3.05,0,0,0-.43.89,1.76,1.76,0,0,0-.07.33c0,.27.08.56-.09.83,0,0,0,.12,0,.18s.07.09.07.13a19.63,19.63,0,0,1,.21,2.31c0,.25.08.56,0,.76s0,.48-.13.71a4,4,0,0,0-.27.69l.29,0c.16-.16.32-.36.51-.53a15.48,15.48,0,0,1,2.13-1.73,1,1,0,0,0,.18-.18c.44-.41.88-.83,1.33-1.22.15-.14.36-.21.52-.34a5.28,5.28,0,0,0,.57-.47c.53-.58,1.27-.89,1.79-1.47.29-.11.47-.38.76-.51a2.46,2.46,0,0,0,.63-.58.33.33,0,0,1,.39-.09.58.58,0,0,1,0,.26c-.21.34-.44.67-.67,1s-.65,1-1,1.43-.64.81-.93,1.24c-.55.81-1.05,1.63-1.54,2.47a9.1,9.1,0,0,1-.62.87,16.61,16.61,0,0,0-1.22,1.79c-.11.22-.31.37-.42.6a2.58,2.58,0,0,1-.41.5,1.31,1.31,0,0,0,.28.12c.24.05.5-.09.72.1a2.17,2.17,0,0,1,1-.1c.16-.22.45,0,.64-.19s.42-.14.63-.19a2,2,0,0,0,.58-.33,6.25,6.25,0,0,1,1.6-.93c.23-.08.42-.28.69-.33a4.51,4.51,0,0,1,1.26-.28c.12,0,.24-.07.37-.09s.25,0,.37-.09.24.09.38,0a2.2,2.2,0,0,1,.44,0,2.26,2.26,0,0,1,.42-.09,3.07,3.07,0,0,0,1-.22,1.61,1.61,0,0,0,.52-.34,2.37,2.37,0,0,0,.59-.67c0-.09.13-.14.2-.21l.13.14a4.46,4.46,0,0,1-1.29,1.71,5.57,5.57,0,0,1-2.24,1.12.89.89,0,0,0-.34.16c-.33.25-.77.34-1.06.65-.21,0-.27.18-.39.29a2.36,2.36,0,0,0-.34.3c-.24.33-.59.58-.81.95l0,0c-.21.15-.14.47-.45.59a.77.77,0,0,0-.48.55,10.5,10.5,0,0,1-1.31.9c-.3.13-.63.21-.93.31v.12s0,0,.08,0a1.45,1.45,0,0,1,.68.1.67.67,0,0,0,.35.06,1.53,1.53,0,0,1,.41.1,3.12,3.12,0,0,1,.44.05c.39.11.79.14,1.17.25.13,0,.26-.19.37,0s.21-.19.31,0a10.54,10.54,0,0,1,1.13.11.53.53,0,0,1,.34,0c.13.13.21-.19.33,0s.25,0,.32.07a.72.72,0,0,0,.53.09c.69,0,1.36.18,2,.1.24.14.53,0,.77.12s.5,0,.72.1a1.41,1.41,0,0,0,.53.09c.14,0,.27-.06.46-.09l.14.19a1.06,1.06,0,0,1-.17.2.28.28,0,0,1-.2,0,1.89,1.89,0,0,0-.82.13c-.23.06-.45.15-.69.19a4.3,4.3,0,0,1-.72.1c-.17,0-.33.12-.52.1a1,1,0,0,0-.54,0c-.17.11-.39-.05-.5.16-.29-.16-.52.1-.79.11a4.38,4.38,0,0,0-.82.11,7,7,0,0,0-1.36.29,2.25,2.25,0,0,0-.93.11c-.5.15-1,.22-1.52.38a7.61,7.61,0,0,1-.87.12c-.36.05-.72.06-1.08.11-.08,0-.16.1-.26.17a4,4,0,0,0,.64,1A4,4,0,0,0,37,28a2,2,0,0,0,.42.09,1,1,0,0,1,.43.08.65.65,0,0,0,.53,0,.56.56,0,0,1,.43-.05,11.44,11.44,0,0,0,1.15.18c.38.08.72.25,1.09.33a.68.68,0,0,1,.37.2c.33.34.81.53,1,1,.47.39.72.95,1.15,1.37a3.82,3.82,0,0,0,1.07.79,2.87,2.87,0,0,0,.89-.07l.26.14-.28.34h-.61a2.44,2.44,0,0,1-.93-.22c-.18-.08-.36-.13-.54-.19A3.94,3.94,0,0,1,42,31.3a7.59,7.59,0,0,0-1.3-1,1.83,1.83,0,0,0-1-.26.33.33,0,0,1-.32-.09.19.19,0,0,0-.19,0c-.19.21-.47,0-.7.19s-.45,0-.66.12c-.39.15-.81.13-1.21.27a3.08,3.08,0,0,1-1,0c-.1-.16-.14.08-.23,0a.74.74,0,0,0-.27-.1A2.83,2.83,0,0,1,33.49,30a2.71,2.71,0,0,0,.36.57c.27.22.41.55.71.74.13.08.15.31.26.44.41.47.73,1,1.15,1.47A12,12,0,0,1,37,34.58c0,.22.28.1.3.28s.12.25.28.29a.2.2,0,0,1,.13.14c0,.25.22.35.34.51.22.31.5.58.75.87s.27.33.4.5.27.33.39.5.34.23.37.46c.43.17.53.66.89.9a.3.3,0,0,1,.11.38c-.42-.25-.85-.46-1.26-.71S39,38.19,38.61,38s-.51-.33-.76-.51c-.45-.31-.93-.55-1.37-.89-.12-.1-.2-.25-.37-.3a1.24,1.24,0,0,1-.5-.28,3.2,3.2,0,0,0-.42-.33c-.16-.1-.34-.19-.49-.29a3.28,3.28,0,0,0-.44-.32c-.8-.35-1.38-1-2.15-1.45-.18-.1-.36-.31-.53-.3s-.34-.23-.58-.25-.3-.25-.46-.39h-.19s-.05.06,0,.09a8.55,8.55,0,0,1,.09.87,2.5,2.5,0,0,0,.26.77,4.79,4.79,0,0,0,1.11,1.84,2.8,2.8,0,0,1,.79,1.45,9.12,9.12,0,0,0,.36,1.12A1,1,0,0,1,33,39a15.81,15.81,0,0,0,.1,1.69c0,.11,0,.24-.07.33a.05.05,0,0,0,0,0c.2.29,0,.65.15,1a.54.54,0,0,1,0,.28,2.78,2.78,0,0,0,.41,1.46.48.48,0,0,0,.12.16c.09.08.24.13.28.23s.2.2.32.27a3.68,3.68,0,0,0,.35.15.18.18,0,0,1,0,.07c-.17.26-.25.3-.4.19a6.27,6.27,0,0,1-1-.83,5.83,5.83,0,0,1-1.22-1.74A3.72,3.72,0,0,1,31.73,41a5.86,5.86,0,0,0-.1-.58c0-.19,0-.39-.1-.57s0-.1,0-.15a.89.89,0,0,0-.25-.77c-.11-.11-.07-.3-.21-.42s-.13-.29-.32-.32-.09-.13-.14-.19a.6.6,0,0,0-.42-.31,1.16,1.16,0,0,1-.53-.29,5.68,5.68,0,0,0-.78-.46,3.27,3.27,0,0,1-.36-.25A18.26,18.26,0,0,1,27,35a.3.3,0,0,1,0-.14c-.16.05-.18.17-.19.31a5.45,5.45,0,0,1-.12,1.28c-.11.4,0,.85-.28,1.21-.05.06,0,.2,0,.3a2.85,2.85,0,0,1-.18,1c-.07.24,0,.52-.22.72,0,.06.1.13.08.16-.13.21-.06.45-.1.67-.12.63-.07,1.27-.24,1.89,0,.07.05.16,0,.24s-.08.17-.1.27-.07.48-.1.72a2.85,2.85,0,0,1-.12.72,2.25,2.25,0,0,0-.09.67c0,.16-.07.32-.1.47s0,.29-.08.43,0,.22,0,.35h-.25A1.07,1.07,0,0,0,25,46a1.19,1.19,0,0,0-.1-.32c-.06-.14-.19-.27,0-.44,0,0,0-.13-.07-.2-.14-.3,0-.65-.21-.93.26-.16-.07-.31,0-.48a.46.46,0,0,0-.09-.47s0,0,0,0c0-.5-.08-1-.09-1.49a3.4,3.4,0,0,0-.18-1s0-.09,0-.14A5.91,5.91,0,0,0,24,39c-.16-.1.17-.31-.09-.39a2.81,2.81,0,0,0,0-.41c0-.14,0-.34-.11-.4s0-.21-.07-.32,0-.25,0-.38-.07-.15-.08-.22c-.07-.38-.13-.76-.21-1.14s0-.8-.13-1.18a4.43,4.43,0,0,1-.08-.8c-.09,0-.14,0-.16,0a6.66,6.66,0,0,1-.56.5,3.47,3.47,0,0,0-.4.46,3.17,3.17,0,0,0-.46.58,1.78,1.78,0,0,0-.37.92c0,.07-.05.14-.07.22a4.43,4.43,0,0,0-.22,1.23,2.06,2.06,0,0,1-.45,1.35,6.74,6.74,0,0,1-1.67,1.7c-.06,0-.1.1-.15.14a5,5,0,0,1-.6.52,2,2,0,0,0-.54.64,12.8,12.8,0,0,0-.7,1.19,2,2,0,0,0-.1,1.21c0,.12,0,.26.08.37s.15.31.23.48h-.35c-.08-.19-.27-.37-.25-.63s-.15-.46-.11-.72a3.82,3.82,0,0,1,0-.76,4.26,4.26,0,0,1,.92-1.91,1.45,1.45,0,0,0,.31-.5c.07-.17.34-.24.29-.49a3.14,3.14,0,0,0,.53-1.16s.08-.08.08-.12a10.33,10.33,0,0,0-.06-1.76c.11-.28-.09-.54,0-.82s0-.62,0-.92a8,8,0,0,1,.4-1.26,1.82,1.82,0,0,1,.4-.75S19.16,33.45,19.14,33.35Z"/><path class="cls-2" d="M40,38.49s-.12,0-.15,0a10.29,10.29,0,0,0-1.14-.82c-.32-.24-.67-.46-1-.67s-.63-.37-1-.53c-.16-.09-.14-.3-.37-.35s-.31-.2-.48-.29-.29-.21-.44-.28c-.33-.15-.54-.47-.91-.53,0,0-.05,0-.08-.06-.57-.5-1.23-.88-1.85-1.33a2.18,2.18,0,0,0-1.05-.55c-.25-.3-.74-.33-.9-.78a.49.49,0,0,0-.5-.24.62.62,0,0,0-.18.57A6.68,6.68,0,0,0,30.6,35a9.1,9.1,0,0,0,1.14,1.62,3,3,0,0,1,.61,1.23c.06.2.07.45.31.59-.06.52.14,1,.1,1.54s0,1.05,0,1.58c0,.16.22.24.08.4s.1.24,0,.39a.44.44,0,0,0,.08.42,1.51,1.51,0,0,1,.12.48,1.63,1.63,0,0,1-.52-.74c-.06-.2-.21-.35-.21-.58s-.12-.21-.19-.32c.19-.16-.08-.23-.07-.36a1.61,1.61,0,0,0-.07-.37,2,2,0,0,1-.07-.23c0-.39-.07-.79-.11-1.18a1.31,1.31,0,0,0-.1-.32,5.15,5.15,0,0,0-.57-1.09c-.17-.23-.46-.34-.55-.63a0,0,0,0,0,0,0c-.37,0-.59-.31-.9-.44a4.46,4.46,0,0,1-.82-.47,1,1,0,0,1-.37-.35c-.09-.15-.3-.24-.38-.4a2.11,2.11,0,0,0-.51-.6,1.1,1.1,0,0,1-.36-.88v-.84h-.37c-.05.17-.09.34-.14.51a2.54,2.54,0,0,0-.11.67c0,.21-.07.42-.09.63a3.31,3.31,0,0,1-.09.62A5.28,5.28,0,0,0,26.33,37c0,.15-.08.28-.1.42-.07.44-.19.88-.23,1.34a2.28,2.28,0,0,1-.18.69c-.08.2.06.45-.1.67s0,.23,0,.35a4.68,4.68,0,0,1-.13,1.49,8.29,8.29,0,0,1-.26,1.46,4.52,4.52,0,0,0-.14,1.12H25a1.33,1.33,0,0,0,0-.2,1.65,1.65,0,0,0-.09-.73c-.08-.2.06-.46-.1-.68-.05-.06,0-.19,0-.3a2.69,2.69,0,0,0-.2-1.19s0,0,0,0c.08-.37-.14-.71-.11-1.08a7.69,7.69,0,0,0-.21-1.44c-.15-.1-.09-.25-.09-.37a.73.73,0,0,0-.2-.63c0-.06.1-.14.09-.16-.14-.18-.08-.38-.1-.58s-.06-.18-.07-.27a4.25,4.25,0,0,1-.14-.71,3.66,3.66,0,0,0-.16-.8s0-.1,0-.14c.06-.55-.2-1.09-.09-1.66a.83.83,0,0,0-.89.28c-.13.13-.22.29-.43.33-.05,0-.1.09-.14.14A7,7,0,0,0,21,36.14a4.56,4.56,0,0,0-.28,1.47,2.24,2.24,0,0,1-.58,1.54c-.14.16-.24.38-.41.48s-.23.35-.48.42-.26.35-.5.38c0,.2-.25.23-.36.36a2.46,2.46,0,0,1-.4.39,3.49,3.49,0,0,0-1,1.28s-.07.07-.13.14c0-.1-.06-.19,0-.24a6.18,6.18,0,0,1,.37-.61,12.18,12.18,0,0,0,1-1.43,2.62,2.62,0,0,0,.47-1.54,2.48,2.48,0,0,0,.1-1.08,3.21,3.21,0,0,0-.1-.62c0-.19.08-.4-.09-.58s.13-.19,0-.33.09-.22.08-.3a2.17,2.17,0,0,1,.16-.81,1.53,1.53,0,0,1,.26-.71c0-.41.33-.64.49-1a6.05,6.05,0,0,1,.7-1L20,32.35c-.19.14-.48.32-.74.53a7.8,7.8,0,0,0-.58.57c-.53.49-1,1-1.59,1.47a8.42,8.42,0,0,0-.64.55c-.13.14-.22.33-.36.46a3.14,3.14,0,0,1-.64.56,3.22,3.22,0,0,0-.65.53c-.43.39-.85.8-1.29,1.18-.12.1-.29.13-.42.23s-.46.37-.72.57h-.13l-1,.92s0,0-.08,0c.24-.31.45-.62.69-.92s.6-.84.93-1.25a15.84,15.84,0,0,0,1-1.42c.22-.35.57-.62.65-1.05a8,8,0,0,0,.56-.74,9.72,9.72,0,0,0,.65-1.06c.1-.14.22-.28.31-.43s.21-.43.3-.64a6.68,6.68,0,0,1,1.33-1.92v-.39a1.35,1.35,0,0,0-.29-.16.67.67,0,0,0-.2,0h-.36c-.1,0-.23,0-.29,0s-.2,0-.27,0-.33.17-.46,0l-.56.08c-.18,0-.37,0-.52.1a2.38,2.38,0,0,0-1.46.67c-.05,0-.15,0-.21,0l-1.06.93a5.63,5.63,0,0,1-.62.37,1.39,1.39,0,0,1-.71.12,20,20,0,0,1-2-.12,1.41,1.41,0,0,0-.79,0A.3.3,0,0,1,7.44,32,4.2,4.2,0,0,0,8,31.75a1.92,1.92,0,0,1,1-.28c.33,0,.65-.13,1-.13.07,0,.14-.07.21-.09l.51-.15c.22-.18.47-.35.68-.55A7.77,7.77,0,0,0,12.65,29a3.41,3.41,0,0,0,.43-.64.52.52,0,0,1,.18-.18c.29-.23.6-.45.88-.69a2.29,2.29,0,0,1,.72-.39,1.33,1.33,0,0,1,.79-.19.37.37,0,0,0,0-.62,4,4,0,0,1-1.36-.19,6.25,6.25,0,0,0-1-.12c-.15,0-.31-.07-.46-.1s-.35.07-.47-.1c-.31.07-.58-.11-.88-.1a4.25,4.25,0,0,1-1.5-.2H10l-1.59-.1a1.9,1.9,0,0,1-.67-.09c-.19-.08-.41,0-.63-.09s-.51-.06-.77-.12-.35.06-.53-.08-.35,0-.52-.11-.37.07-.51-.11c-.32.05-.61-.12-.92-.12-.09,0-.17-.07-.31-.14a.68.68,0,0,1,.17-.05,6.09,6.09,0,0,0,1-.09,3.69,3.69,0,0,0,.93-.21c.13-.07.29.24.43,0L7.15,24c.2,0,.41-.06.62-.1s.44.1.63-.09c0,0,.06,0,.09,0a10.85,10.85,0,0,0,1.39-.11,3.34,3.34,0,0,0,.52-.09,2,2,0,0,0,.47-.09,5.51,5.51,0,0,1,.92-.12l.63-.1a1.7,1.7,0,0,0,.62-.09c.16-.07.37,0,.56,0s.41.07.63-.08.43.08.62-.11c0,0,.15,0,.23,0a.94.94,0,0,0,.28.06c.14,0,.27-.09.24-.25a2.74,2.74,0,0,0-.31-.94,6.91,6.91,0,0,0-1.52-1.39,2.34,2.34,0,0,0-.55-.27L13,20.16a4,4,0,0,0-.57-.24,3,3,0,0,1-.58-.19c-.19-.1-.44.08-.62-.12-.19.22-.37-.05-.57,0a5,5,0,0,1-.67,0A2.22,2.22,0,0,1,8.47,19a11.87,11.87,0,0,0-1.75-1.33,1,1,0,0,0-.18-.06,1.88,1.88,0,0,1-.43-.16,1.48,1.48,0,0,1,.72,0,4.55,4.55,0,0,1,.64.19c.55.29,1.09.57,1.61.9a2.7,2.7,0,0,0,.88.35,1.71,1.71,0,0,0,.81,0c.44-.15.9-.22,1.34-.33a2.86,2.86,0,0,1,.28-.07c.44,0,.89,0,1.33,0a4.93,4.93,0,0,1,.83.18c.46.15.92.25,1.37.42a.66.66,0,0,1,.26.11c.13.12.28.22.44.34l.21-.19c0-.06,0-.11,0-.12-.18-.1-.23-.32-.41-.45s-.18-.34-.31-.47-.22-.28-.37-.41a6.57,6.57,0,0,1-.82-.92c-.27-.34-.52-.7-.78-1.05-.17,0-.11-.13-.17-.18s-.21-.3-.39-.41a1.66,1.66,0,0,1-.36-.45A22.34,22.34,0,0,1,11.7,13a2,2,0,0,0-.32-.33c-.08-.09-.11-.19-.24-.26a1.68,1.68,0,0,1-.37-.45,12.43,12.43,0,0,1-1.29-1.76,1.42,1.42,0,0,1,.65.4,6.91,6.91,0,0,0,1.27.86c.14.07.37.12.4.23s.23.21.34.31c.46.42,1,.68,1.5,1.06l.35.27.35.26,1.24.83,1.16.75,1.82,1.16.44.29c.27.18.29.18.48-.11l.41-.57a1.07,1.07,0,0,1,0-.18,3.94,3.94,0,0,0-.22-1.49,2.81,2.81,0,0,0-.47-.82,4.68,4.68,0,0,0-.81-1.09c-.4-.33-.49-.87-.91-1.15a9.34,9.34,0,0,1-.44-1.1A10.36,10.36,0,0,1,16.92,9,1.06,1.06,0,0,1,17,8.53c.07-.18-.21-.29-.07-.45s0-.27,0-.4.15-.26,0-.43,0-.28-.07-.43a1.55,1.55,0,0,1,0-.49,2.33,2.33,0,0,1,.3.77c.09.27.14.55.21.83s.17.4.22.62a2.81,2.81,0,0,0,.3.84,3.94,3.94,0,0,0,.68.95,4.83,4.83,0,0,1,.5.51c.12.17.36.21.44.42a.23.23,0,0,0,.12.06,1.43,1.43,0,0,1,.58.45,12,12,0,0,0,1.38,1.09,6.35,6.35,0,0,1,1,1,1.66,1.66,0,0,1,.42.74c0,.27.32.18.4.36a.79.79,0,0,0,.22-.61,4.21,4.21,0,0,1,.18-1c0-.06,0-.13,0-.2a2.15,2.15,0,0,1,.07-.58c.08-.19,0-.38.11-.57s0-.46.13-.66c0-.42.12-.82.12-1.24a2.09,2.09,0,0,1,.17-.94.23.23,0,0,0,0-.14,6.2,6.2,0,0,1,.12-1.29,5.85,5.85,0,0,1,.23-1.07,2,2,0,0,0,.06-.23c0-.23,0-.45.09-.68s0-.41.1-.62a2.2,2.2,0,0,0,0-.81,1,1,0,0,1,.23-.61c-.08.47.14.82.09,1.21a2.47,2.47,0,0,0,.09.52c0,.16,0,.32.1.47s0,.17,0,.25a1.18,1.18,0,0,0,.09.58c.09.16-.08.4.1.57s0,.1,0,.14c-.07.56.14,1.09.11,1.65,0,.12.07.24.09.36s0,.25.07.39,0,.33,0,.49,0,.42,0,.56,0,.46.09.62,0,.43.16.61-.2.27,0,.41c0,.31.07.62.11.93a1.89,1.89,0,0,1,.05.23c0,.27.26.53.05.82,0,.05,0,.18.08.25a.76.76,0,0,0,.7-.14,4.52,4.52,0,0,0,1.16-1c.22-.24.34-.59.56-.83s.24-.59.42-.85,0-.44.14-.61a4.19,4.19,0,0,1,.09-.93,6.58,6.58,0,0,1,.48-1.54,3.57,3.57,0,0,1,.77-1.06c.31-.34.66-.65,1-1s.56-.62.85-1A6,6,0,0,1,32.44,7a1,1,0,0,1-.25.45,5.19,5.19,0,0,0-.85,1.08,2.45,2.45,0,0,0-.44,1c0,.31,0,.62-.1.92s.25.23.06.4.13.23.07.4a1,1,0,0,0,0,.46,5.67,5.67,0,0,0,.1.57c0,.17-.08.37.08.53,0,0,0,.07,0,.09A1.9,1.9,0,0,0,31,14a3.05,3.05,0,0,1-.29,1.16,3.39,3.39,0,0,1-.18.39c-.14.27-.14.27-.45.35,0,.39.11.44.44.27a.84.84,0,0,0,.21-.11A6.28,6.28,0,0,1,32,15.1a.38.38,0,0,0,.11-.11c.15-.15.29-.3.44-.43s.31-.2.4-.34a1.62,1.62,0,0,1,.42-.37A20.14,20.14,0,0,1,35,12.45s0-.1.08-.15a.32.32,0,0,1,.36-.15s0-.11,0-.13a8.33,8.33,0,0,1,.87-.7,1.6,1.6,0,0,0,.4-.28A8.34,8.34,0,0,1,38,10.1a6,6,0,0,0,.72-.63,1.1,1.1,0,0,1,.73-.38,20.05,20.05,0,0,0-1.63,2.16c0,.06,0,.17-.11.21a2.36,2.36,0,0,0-.67.9c-.21.4-.5.74-.74,1.12-.41.65-.84,1.29-1.27,1.92-.17.24-.35.47-.53.7a3.91,3.91,0,0,0-.36.47,6.35,6.35,0,0,1-1,1.38,2.88,2.88,0,0,0-.26.35.26.26,0,0,0,.18.38,4.93,4.93,0,0,1,.94.21.26.26,0,0,0,.15,0c.33-.21.71,0,1.06-.15s.95-.26,1.51-.4a3,3,0,0,1,.93-.62,2.22,2.22,0,0,0,.35-.25,3.19,3.19,0,0,1,.44-.31c.24-.12.49-.21.74-.31l.75-.28c.19-.07.41-.05.61-.11.4-.1.83-.05,1.23-.13A5.56,5.56,0,0,0,43.23,16a2.06,2.06,0,0,1,.57-.11,1.88,1.88,0,0,1-.7.6,1.8,1.8,0,0,0-.56.39,3.08,3.08,0,0,0-.41.1c-.19.07-.37.22-.56.22-.42,0-.67.29-1,.5l-.24.14c-.2.1-.46.15-.58.3s-.35.27-.48.45-.32.32-.45.53-.44.49-.63.76a4.63,4.63,0,0,1-1.71,1.52,3.42,3.42,0,0,1-1.78.52c-.07,0-.14.07-.21.1l.11.37.07,0a2.27,2.27,0,0,1,.58.1l1.34.23a5.25,5.25,0,0,1,1.35.29A3,3,0,0,1,39,23.2c.47.06.93,0,1.39.1a2.6,2.6,0,0,1,.81.11c.26.13.55-.06.75.17.14-.2.27.05.43,0a6,6,0,0,1,1.68.11c.39,0,.79.07,1.3.09-.17.1-.26.2-.33.19s-.38.12-.57.11a1.84,1.84,0,0,0-.62,0,10.9,10.9,0,0,0-1.36.27.41.41,0,0,1-.19,0,2,2,0,0,0-.73.1,2.18,2.18,0,0,1-.67.1,4.26,4.26,0,0,0-.62.13,14.37,14.37,0,0,0-2.4.48,4.5,4.5,0,0,1-.95.15.72.72,0,0,1-.55.17,1.19,1.19,0,0,0-.72.1c-.16-.1-.32,0-.48,0s-.37,0-.56,0l-.24.46a1,1,0,0,0,.08.2,4.21,4.21,0,0,0,2.38,2,3.58,3.58,0,0,0,.87.12c.3,0,.61,0,.92,0s.89.06,1.33.1a1.48,1.48,0,0,1,.27.1,3.8,3.8,0,0,1,1.46.77,4.71,4.71,0,0,1,.62.71,7,7,0,0,0,1.16,1.45.25.25,0,0,1,.06.21.8.8,0,0,1-.16-.08l-.66-.27a3.49,3.49,0,0,1-1.35-.93,2.79,2.79,0,0,0-.65-.53c-.23-.15-.55-.14-.79-.31-.49.05-1-.12-1.47.14a.22.22,0,0,1-.13.06l-.92.11A1.47,1.47,0,0,0,37,30a2,2,0,0,1-1,.08c-.33,0-.67.12-1-.09-.09.19-.18,0-.27,0a.7.7,0,0,1-.29,0,1.93,1.93,0,0,1-1.06-.65.4.4,0,0,0-.49.18c.1.16.2.34.32.51a8.88,8.88,0,0,0,.92,1.2,3.17,3.17,0,0,1,.58.78,8.35,8.35,0,0,0,.63.81c.12.17.28.31.4.5s.36.43.53.65.41.54.61.82c0,0,0,.12,0,.13.38.1.47.49.7.73a3.05,3.05,0,0,1,.63.8.92.92,0,0,0,.22.22,10.62,10.62,0,0,1,.91,1.1A7.85,7.85,0,0,0,40,38.49Z"/><path class="cls-1" d="M16.82,6.34l-.09-.07,0,0,.07.08Z"/><path class="cls-1" d="M9.47,10.22l-.09-.07,0,0,.08.08Z"/><path class="cls-1" d="M40,38.48l.09.07,0,0L40,38.5Z"/><path d="M22.61,28.82l-.35-.44-.31.14c0-.09,0-.16,0-.2a2.52,2.52,0,0,1,.22-.3c.1.07.17.1.19.15a.53.53,0,0,0,.72.29c.19-.07.36,0,.5-.08l.64-.71a.73.73,0,0,1,.73-.19,1.19,1.19,0,0,0,.79,0,1.25,1.25,0,0,1,.38,0,.4.4,0,0,0,.15,0c.07.06.16.16.26.17a1.48,1.48,0,0,1,1,.52c.33-.05.41-.13.49-.49.32.12.34.13.36.5l-.17-.12-.47.41c-.15,0-.33,0-.43,0s-.24-.13-.4,0-.3,0-.45,0a.54.54,0,0,0-.29,0c-.1.07-.23-.09-.3.06-.43.09-.84.37-1.3.11-.16.16-.31-.06-.48,0a2.09,2.09,0,0,1-.5,0,5.19,5.19,0,0,0-.56,0A1.72,1.72,0,0,0,22.61,28.82Z"/><path d="M22.56,23.22l0-.27c.09-.16.28-.24.35-.49-.52.09-.85.57-1.43.49.1-.12.17-.27.21-.26.28,0,.44-.19.66-.27.09-.36-.25-.34-.46-.53a.61.61,0,0,1-.3.57.91.91,0,0,1-.47.11c-.33,0-.54-.22-.65-.65a1.42,1.42,0,0,0-.17.21,3.37,3.37,0,0,0-.19.32.28.28,0,0,0,.34.22.66.66,0,0,1,.57.16c-.85.09-1,.07-1.32-.22a2.27,2.27,0,0,1-.43.05c-.06,0-.12-.1-.19-.15s.13-.27.32-.25A.6.6,0,0,0,20,22,1.13,1.13,0,0,1,21,21.44a.94.94,0,0,0,.31-.1,1.63,1.63,0,0,0,.58.22,1.2,1.2,0,0,1,.54.27,1.06,1.06,0,0,0,.79.22v.28l-.18.06A.77.77,0,0,1,22.56,23.22Z"/><path d="M28.43,22.33A3.42,3.42,0,0,1,28,22a2.92,2.92,0,0,1-.26-.47l-.57.44.41.31h.53a.91.91,0,0,1-1,.09.62.62,0,0,0-.32-.09h-.46a.71.71,0,0,1,.23-.38l.34.1c.24-.48.76-.61,1.12-.94l.08.08A3.89,3.89,0,0,1,28.5,21a.34.34,0,0,1,.24,0c.33.18.75.17,1,.44a1.13,1.13,0,0,0,.84.39c0,.07,0,.13,0,.14a8,8,0,0,1-1,.53,4.27,4.27,0,0,1-.82.13c.27-.31.75-.22.87-.66l-.39-.23s-.11.05-.11.11c0,.4-.3.45-.61.47A.77.77,0,0,0,28.43,22.33Z"/><path d="M30.4,19.4l.63.7-.18.24c-.23-.07-.28-.3-.44-.42a2,2,0,0,1-.45-.41c-.3,0-.53-.22-.83-.21H29a2.26,2.26,0,0,0-1.35.3,2,2,0,0,0-1.06.88c-.26.06-.27.33-.37.5a5.62,5.62,0,0,0-.25.56,6.87,6.87,0,0,0-.3,1.1,4.82,4.82,0,0,1-.27.61c-.06-.11-.13-.17-.12-.22a2.67,2.67,0,0,1,.09-.26,2.63,2.63,0,0,0,.1-.47,3.59,3.59,0,0,0,0-.45c.08-.18.16-.3.2-.43a3.22,3.22,0,0,1,.51-1,3.49,3.49,0,0,1,2-1.3c.25-.08.55-.33.86-.06A4.29,4.29,0,0,1,30.4,19.4Z"/><path d="M8.46,24.7v-.16s.07,0,.1,0c.27.06.51-.1.77-.1a6.59,6.59,0,0,1,.77,0c.36,0,.72.07,1.08.09.13,0,.33.05.39,0s.18.06.29,0,.3,0,.4,0c.31-.19.66.19,1-.09.34.21.72.06,1.08.09s.71,0,1,.07l.25.09v.1l-.26.08.07.09c-.53,0-1.06-.09-1.59-.11s-1.06,0-1.58,0a2.58,2.58,0,0,0-.87-.06c-.23.06-.42-.06-.64,0a3.36,3.36,0,0,1-.71,0l-.69-.05s-.1,0-.15,0C8.91,24.71,8.69,24.7,8.46,24.7Z"/><path d="M36.59,11.62c-.08.14,0,.35-.23.36,0,0-.14.1-.13.14.07.2-.13.22-.21.31l-.23.31c-.2.25-.5.4-.62.72-.42.28-.59.8-1,1.11a2.38,2.38,0,0,0-.43.52c-.15.23-.43.32-.57.57a5.66,5.66,0,0,1-.43.54,2.28,2.28,0,0,1-.29.33,1.38,1.38,0,0,0-.37.35,1.64,1.64,0,0,1-.37.44l-.21-.2c0-.09,0-.13.06-.15s.25-.32.47-.36c0-.23.24-.31.36-.47a4.12,4.12,0,0,1,.32-.41,5.93,5.93,0,0,1,.43-.44,2.49,2.49,0,0,0,.42-.44c.19-.29.57-.41.69-.77,0,0,.11-.06.17-.09s.19-.13.18-.27a.19.19,0,0,1,.08-.17c.27-.16.41-.45.65-.63a.79.79,0,0,0,.26-.3c.08-.23.3-.29.42-.44s.15-.36.31-.47A1.07,1.07,0,0,1,36.59,11.62Z"/><path d="M21.29,15.46c-.08-.11-.16-.17-.17-.24a3.94,3.94,0,0,0-.5-1.43,4.3,4.3,0,0,0-.8-1c-.47-.44-.94-.89-1.43-1.33a1.62,1.62,0,0,1-.65-1.1c0-.13-.18-.24-.06-.4a.63.63,0,0,1,.29.47,1.39,1.39,0,0,0,.33.62,1.63,1.63,0,0,0,.54.51c.24.11.35.33.58.45a4.06,4.06,0,0,1,.77.73c0,.24.23.22.32.37a6.84,6.84,0,0,1,.52.8c.17.4.49.78.39,1.26A2,2,0,0,1,21.29,15.46Z"/><path d="M24.85,8.44a2.87,2.87,0,0,0,.17.7c.07.14,0,.27.08.38s-.27.35,0,.53c0,.2,0,.41,0,.61v2.4c0,.2,0,.41,0,.61s.08.52.09.77c0,.1-.09.19-.13.27-.24,0-.29-.17-.27-.33s0-.29.07-.44-.08-.23-.06-.34-.16-.4,0-.64,0-.44,0-.66,0-.47,0-.71a4,4,0,0,1,.07-1.2,1.21,1.21,0,0,1,0-.86c-.18,0,.09-.17,0-.26s0-.22-.05-.33V8.58S24.81,8.52,24.85,8.44Z"/><path d="M32,31v-.38c.06,0,.13,0,.15,0,.22.18.37.44.65.54v.24a2.06,2.06,0,0,1,.52.4c.19.27.44.46.62.72s.3.21.35.35.29.23.35.36c.15.3.47.39.66.63a9,9,0,0,0,.69.69c.11.11.2.26.41.25,0,0,.16.08.18.15a1.44,1.44,0,0,0,.47.67.85.85,0,0,1,.09.23l-.19-.13c-.18-.18-.35-.37-.54-.54a2.56,2.56,0,0,0-.58-.46c-.26-.14-.3-.5-.63-.55-.13-.35-.52-.42-.72-.71a2.32,2.32,0,0,1-.29-.39c0-.08-.18-.11-.29-.14-.23-.22-.28-.61-.66-.72-.09-.28-.41-.36-.55-.62a1.26,1.26,0,0,0-.39-.37C32.15,31.16,32,31.09,32,31Z"/><path d="M23.68,20.29l-1.44-.86c-.25-.09-.49.08-.66-.13-.24.15-.51.08-.76.14a4.63,4.63,0,0,0-.83.33,1.57,1.57,0,0,0-.71.66l-.45.62-.14-.14a1.71,1.71,0,0,1,.64-1,3.05,3.05,0,0,1,1.53-.74,7.14,7.14,0,0,1,.93-.08,1.9,1.9,0,0,1,.88.21,3.41,3.41,0,0,1,.7.28A.83.83,0,0,1,23.68,20.29Z"/><path d="M17.9,17.85h-.43a3.3,3.3,0,0,0-1.11-1,1.1,1.1,0,0,1-.22-.21c-.18-.18-.36-.37-.55-.54s-.42-.28-.55-.48a2.34,2.34,0,0,0-.52-.48A12.58,12.58,0,0,1,13.17,14a.88.88,0,0,1-.12-.15s0,0,0-.09.13,0,.16,0,.24.24.37.35.3.17.37.3.36.07.33.31c.16.09.36.14.45.26a1.13,1.13,0,0,0,.36.36,5.38,5.38,0,0,1,.65.53c.58.54,1.15,1.09,1.73,1.62.06.07.17.09.24.15A2,2,0,0,1,17.9,17.85Z"/><path d="M34.7,24.2v-.31c1,0,2-.07,2.95.06,1-.17,2,.05,2.94-.11l.13.1-.14.14c-.21.07-.45-.09-.63.12-.16-.25-.39,0-.59-.09a.81.81,0,0,0-.65,0c-.25.13-.45-.06-.63,0a2,2,0,0,1-.63.09H34.7Z"/><path d="M28.44,33.48l.14-.17L28.44,33l.33-.2c0,.28-.07.54,0,.7s.05.39.08.58.08.41.11.58a6,6,0,0,1,.49.8.65.65,0,0,0,.24.31,3.89,3.89,0,0,1,.92.84,1.05,1.05,0,0,0,.48.35v.3c.13.19.34.31.48.57-.39,0-.45-.32-.66-.41l0-.3-.7-.64c-.16-.14-.32-.28-.49-.41a3.84,3.84,0,0,1-.87-1.05,1,1,0,0,1-.17-.34,3.75,3.75,0,0,1-.11-.67C28.55,33.85,28.61,33.64,28.44,33.48Z"/><path d="M33.85,27.82l.25-.15a1.24,1.24,0,0,1,.18.2A2.77,2.77,0,0,0,35.92,29a4.57,4.57,0,0,0,1.28.13,1.66,1.66,0,0,1,1,.09s.08,0,.09,0c.22-.23.38,0,.56.11h-.34c-.41,0-.82,0-1.23.07a7.3,7.3,0,0,1-1.85-.18,6.25,6.25,0,0,0-.61-.38A2.67,2.67,0,0,1,33.85,27.82Z"/><path d="M34.74,24.71h1.11a3,3,0,0,0,.88-.09c.27-.09.59.1.87-.11.21.25.41,0,.62,0a2.91,2.91,0,0,0,.66,0,2.64,2.64,0,0,0,.42-.11l-.11.31a5.45,5.45,0,0,0-1.25.13c-.42.15-.86-.06-1.25.18-.14-.23-.27,0-.42,0a2.09,2.09,0,0,0-.5,0c-.18,0-.35.07-.52.1l-.55.05C34.55,25,34.55,25,34.74,24.71Z"/><path d="M24.18,29.94l-.43-.19.09-.17-.09-.34c.07,0,.12,0,.16,0a1.3,1.3,0,0,0,.62.09c.12.21.37,0,.54.19s.33-.11.51,0c.31-.22.7,0,1-.24l0,.23h-.41c0,.06,0,.11.05.1a.33.33,0,0,1,.34.15l-.11.18.23.25-.16.15-.37-.5H24.74c-.21.28-.62.21-.93.44l0-.25h.41Z"/><path d="M25.11,34.6c0-.05-.09-.09-.1-.13s-.08-.37-.12-.56a.27.27,0,0,1,.19-.32.25.25,0,0,1,.22.28,6.73,6.73,0,0,1,0,1.27,16.19,16.19,0,0,0-.09,2.41.6.6,0,0,0,.08.38.52.52,0,0,1-.16.56s-.06,0-.13,0,0-.22,0-.33.06-.36-.09-.53,0-.22,0-.33A1.32,1.32,0,0,0,25,37a2.21,2.21,0,0,1,0-1.25.32.32,0,0,0,0-.14c0-.08-.09-.17-.07-.22s0-.21,0-.33S25,34.76,25.11,34.6Z"/><path d="M18.77,31.37a.59.59,0,0,1-.05.27,2.54,2.54,0,0,1-.47.56c-.18.16-.27.38-.48.53a1.47,1.47,0,0,0-.41.47c-.12.21-.35.33-.47.57a5.25,5.25,0,0,1-.43.53,8.61,8.61,0,0,1-.74.86l-.45.51-.1-.25a13.06,13.06,0,0,0,.93-1.06,11.82,11.82,0,0,0,.84-1.13.16.16,0,0,1,.07-.07L18,32c.08-.09.16-.2.24-.31A.84.84,0,0,1,18.77,31.37Z"/><path d="M31.06,31.3a6,6,0,0,1,.7.44c.36.29.69.62,1,.93l.48.41a2.57,2.57,0,0,0,.55.4.87.87,0,0,1,.35.27,4,4,0,0,0,1.17.87.47.47,0,0,1,.22.32,2.08,2.08,0,0,0-.45-.22c-.32-.08-.48-.44-.83-.46,0,0,0,0,0,0-.23-.48-.71-.67-1.13-.94-.24-.16-.43-.39-.67-.58a10.67,10.67,0,0,0-1.33-1C31,31.66,31,31.6,31.06,31.3Z"/><path d="M25.31,33.29c0-.08,0-.11,0-.14s.06-.07.07-.06c.23.12.45-.23.68,0,.21-.17.46,0,.67-.1s.55-.15.82-.24.45-.13.67-.22a1.9,1.9,0,0,0,.52-.35h.19a8.07,8.07,0,0,0,2.89-2.24.61.61,0,0,1-.23.5c-.11.1-.3.15-.34.26A.62.62,0,0,1,31,31a6.68,6.68,0,0,1-1.16.88c-.15.08-.26.26-.46.19s-.25.32-.5.31-.25.29-.48.2c-.37.34-.89.31-1.32.51,0,0-.1,0-.15,0-.22.05-.44,0-.68.09s-.45,0-.67.11S25.41,33.29,25.31,33.29Z"/><path d="M15.36,23.6l.12.25-.3.16a.41.41,0,0,0-.49-.1,2.42,2.42,0,0,1-.88.08h-.36a5.23,5.23,0,0,0-.56,0c-.16,0-.33-.08-.47.07-.17-.1-.3.06-.47,0a2.78,2.78,0,0,0-.5,0,5.23,5.23,0,0,0-.56,0,1.3,1.3,0,0,1-.49,0l.35-.25h.3A13.85,13.85,0,0,0,13,23.77a13.1,13.1,0,0,1,1.39-.08.8.8,0,0,0,.33-.06.46.46,0,0,1,.51,0S15.31,23.62,15.36,23.6Z"/><path d="M33.78,20.32c0-.34,0-.34.36-.42l.15.23c.09-.06.14-.11.19-.11A2.17,2.17,0,0,1,35,20a4,4,0,0,0,.77-.11,1.74,1.74,0,0,0,.74-.2,2.2,2.2,0,0,0,.85-.64,2.09,2.09,0,0,1,.29-.25c0,.19.12.31-.1.39s-.15.2-.24.28-.2.11-.27.19a2.15,2.15,0,0,1-1.05.53,2.2,2.2,0,0,1-.57.1,3.78,3.78,0,0,0-.57.1.59.59,0,0,1-.52-.08C34.2,20.26,34,20.32,33.78,20.32Z"/><path d="M39.47,23.56c-.28,0-.57.12-.83-.06-.14.13-.3.08-.46.09-.71,0-1.4-.18-2.1-.11a3.62,3.62,0,0,0-.92-.11c-.2,0-.46,0-.58-.29.1-.18.22-.28.43-.15a1.12,1.12,0,0,0,.4.14c.29.05.58.07.88.11s.43-.09.62.1a1,1,0,0,1,.78.11c.13.05.16-.18.3-.05s.19,0,.28,0A2.68,2.68,0,0,1,39.47,23.56Z"/><path d="M26.46,25.74l.2-.33.17.16a.43.43,0,0,0-.09.1.5.5,0,0,1-.5.38,1.93,1.93,0,0,0-1.1.51l-.27-.11a3.29,3.29,0,0,1-.61-.26,1,1,0,0,0-.77-.14l-.26-.47c.23-.14.27.09.4.15a1.74,1.74,0,0,1,.93.23,3.17,3.17,0,0,0,.38.17.53.53,0,0,0,.27-.06c.18-.07.34-.18.52-.23A1.17,1.17,0,0,1,26.46,25.74Z"/><path d="M12.64,30.19c0-.14,0-.23.06-.27s.29-.23.33-.37.26-.17.35-.3.26-.19.38-.3.29-.29.43-.43c.36-.1.69-.29,1.08-.36a8.32,8.32,0,0,1,1.12-.08c0,.34-.1.5-.31.39s-.19,0-.28,0a2.67,2.67,0,0,0-.26-.09c-.07,0-.14.07-.22.09-.27.07-.55.12-.82.21-.12,0-.2.17-.31.23A5.64,5.64,0,0,0,12.87,30,1.84,1.84,0,0,1,12.64,30.19Z"/><path d="M16.16,20.73l-.23.28-.49-.51a5.67,5.67,0,0,0-.94-.69,2.35,2.35,0,0,0-.84-.3,4.7,4.7,0,0,0-1.29-.21h-.8c.08-.07.1-.1.12-.1a3.29,3.29,0,0,0,.88-.09c.32-.11.64.07,1,.11.09,0,.18.07.28.08a1.85,1.85,0,0,1,.8.27,4.65,4.65,0,0,1,.85.53c.14.12.28.18.36.37S16,20.62,16.16,20.73Z"/><path d="M15.67,25.73a2.44,2.44,0,0,1-.83-.08,3.51,3.51,0,0,0-.87-.12c-.17,0-.34-.08-.52-.1s-.32,0-.47-.1-.2,0-.3,0a2.63,2.63,0,0,1-1.08-.09s-.1.05-.15.08l-.13-.14.14-.15c.66-.06,1.29.18,1.95.1a2.75,2.75,0,0,0,1.07.1c.34,0,.64.2,1,.23C15.52,25.45,15.57,25.59,15.67,25.73Z"/><path d="M21.83,32.88c-.14.16-.19.27-.27.3a2.11,2.11,0,0,0-.9.85,3.18,3.18,0,0,0-.56,1.24c0,.12-.07.24-.1.36a3,3,0,0,0,0,1.65,2.28,2.28,0,0,1,0,.27l-.3-.38c0-.33,0-.72,0-1.11a2.58,2.58,0,0,1,.24-1,9.51,9.51,0,0,1,.67-1.31,4.11,4.11,0,0,1,.88-.84C21.52,32.85,21.63,32.88,21.83,32.88Z"/><path d="M30.12,11.76l.14,0,.12.56-.14.28c.11.36-.09.65-.16.95a3.52,3.52,0,0,1-.43,1,10.15,10.15,0,0,1-.65.84l-.33,0c0-.31.22-.43.36-.59a3.52,3.52,0,0,0,.77-1.42c.06-.24.17-.47.22-.72S30.06,12.05,30.12,11.76Z"/><path d="M24,33.73l.22-.16s.07.07.08.1a1.36,1.36,0,0,0,.09.62c.06.14,0,.35-.05.53s-.05.14,0,.19a5.31,5.31,0,0,1,.1,1.59,1,1,0,0,0,.09.53.41.41,0,0,1-.08.5l.15.16-.09.62c0-.06-.06-.08-.07-.11a2.16,2.16,0,0,0,0-.36c0-.12-.08-.24-.1-.37a.69.69,0,0,1,0-.35c.06-.12-.2-.15-.05-.3s0-.22-.06-.34-.08-.21-.1-.31a.27.27,0,0,1,0-.2c.17-.21,0-.4,0-.59C24.13,34.89,23.92,34.33,24,33.73Z"/><path d="M30.81,36.11c-.47-.13-.66-.53-.91-.86a3.32,3.32,0,0,1-.69-2.56l.24-.21a.32.32,0,0,1,.14.35s-.1.08-.1.11c0,.39.1.77.14,1.16.21.18.1.49.28.7a5.4,5.4,0,0,1,.4.65C30.46,35.68,30.64,35.89,30.81,36.11Z"/><path d="M37.86,19.53c0,.2.12.35-.13.38-.25.52-.84.62-1.22,1-.09.09-.26.1-.39.14s-.15,0-.19,0c-.24.23-.59.11-.86.25-.1.05-.28,0-.43-.08l-.2.15-.08-.35s.06-.1.15-.11a4.85,4.85,0,0,1,.66,0,3.43,3.43,0,0,0,1.66-.54A4.24,4.24,0,0,0,37.86,19.53Z"/><path d="M30.63,12.15a.88.88,0,0,1,.25,1,7,7,0,0,1-.31.83.71.71,0,0,0-.06.28.83.83,0,0,1-.1.47,2.3,2.3,0,0,1-.17.39c-.19.22-.4.41-.63.63-.06-.05-.14-.08-.18-.15a.23.23,0,0,1,0-.16c.36-.11.44-.45.61-.72,0-.06,0-.17.11-.2s.1-.21.12-.33A8.35,8.35,0,0,1,30.63,13a.74.74,0,0,0,0-.6C30.6,12.35,30.63,12.24,30.63,12.15Z"/><path d="M25.79,37.1l-.19-.19c0-.29-.07-.59.1-.87,0,0,0-.13,0-.19s-.08-.2-.06-.28c.18-.47.12-1,.3-1.46,0-.08-.05-.2-.1-.37l.33-.19.17.08c0,.24,0,.53-.11.7s.05.49-.18.64a1.46,1.46,0,0,1-.11.72.77.77,0,0,1,0,.63A7.49,7.49,0,0,0,25.79,37.1Z"/><path d="M36.85,29.75a1.21,1.21,0,0,1-.77.14c-.25,0-.51,0-.77-.08s-.47-.18-.71-.24a3.29,3.29,0,0,1-.79-.41.62.62,0,0,1-.33-.66l.25,0a1.11,1.11,0,0,0,.62.62,3.4,3.4,0,0,0,1,.45c.1,0,.15.08.26,0s.15.05.24.06Z"/><path d="M32.47,30.15l.11-.11.06,0c.25.29.47.6.73.87a4,4,0,0,1,.61.87c.37.11.43.52.71.72.06,0,.09.13.18.27a1.09,1.09,0,0,1-.28-.08c-.1-.05-.25-.09-.28-.18-.12-.31-.43-.46-.62-.71s-.16-.25-.26-.35A3.6,3.6,0,0,1,32.47,30.15Z"/><path d="M13.89,29.79l-.14-.14a2.09,2.09,0,0,1,.29-.16c.32-.15.64-.27.94-.44s.41.06.56-.14a3.46,3.46,0,0,1,1.32.09c.08,0,.13.14.21.22a.46.46,0,0,1-.45.08,2.73,2.73,0,0,0-1.24,0A6,6,0,0,0,13.89,29.79Z"/><path d="M15.1,16a2.22,2.22,0,0,1,.64.61c.16.25.4.41.55.64a6.72,6.72,0,0,0,.54.53l.49.63-.24.23a8.29,8.29,0,0,1-.88-1c-.19-.29-.39-.56-.6-.82l-.46-.53S15.12,16.2,15.1,16Z"/><path d="M27.84,15c0-.14,0-.25.06-.31a.58.58,0,0,1,.31-.24c.09,0,.13-.21.23-.28a1.52,1.52,0,0,0,.43-.48,7.38,7.38,0,0,0,.59-1c0-.05.09-.07.19-.15a1.44,1.44,0,0,1,0,.32.51.51,0,0,1-.1.21c-.16.22-.28.47-.45.68a5.47,5.47,0,0,1-.44.63c-.09.08-.13.22-.22.31a1.18,1.18,0,0,1-.32.21A1.44,1.44,0,0,1,27.84,15Z"/><path d="M31,16.53a6.82,6.82,0,0,1,1.14-1,1.52,1.52,0,0,0,.51-.46.68.68,0,0,1,.34-.31,2.15,2.15,0,0,1,.4-.21c-.1.17-.07.42-.34.47a.37.37,0,0,0-.15.13c-.26.48-.78.69-1.11,1.1a2.44,2.44,0,0,1-.5.4c-.06,0-.16,0-.24,0Z"/><path d="M20.58,15.82h-.25a8.37,8.37,0,0,1-.12-1.11,2.32,2.32,0,0,0-.43-1.3,1.7,1.7,0,0,1-.32-.69l.69.79A4.31,4.31,0,0,1,20.58,15.82Z"/><path d="M36.16,28.28a.64.64,0,0,1,.26.45L36,28.51a2.56,2.56,0,0,1-1.94-1.38l.12-.26h.23A2.09,2.09,0,0,0,36.16,28.28Z"/><path d="M20.09,20.34c.11-.37.5-.26.66-.53h1a1.38,1.38,0,0,1,.27.08.75.75,0,0,0,.62.09c.22.37.71.4.9.86-.13,0-.27,0-.32-.08A2.33,2.33,0,0,0,22,20.12a2,2,0,0,0-1-.1,6,6,0,0,0-.67.24Z"/><path d="M15.88,21.84h-.26v-.15a6,6,0,0,0-2-1.75s0-.06,0-.09,0,0,0-.05a8.52,8.52,0,0,1,1.69,1C15.66,21.09,16,21.36,15.88,21.84Z"/><path d="M18.56,17.15l-.24.23c-.08,0-.13,0-.14-.05-.24-.42-.71-.58-1.05-.89,0,0-.06,0-.08,0l-1.33-1.19a1.11,1.11,0,0,1,.65.32,9.29,9.29,0,0,0,1,.77c.23.13.41.32.63.43S18.3,17,18.56,17.15Z"/><path d="M17.15,34.14c-.13-.34.26-.28.32-.5s.29-.32.45-.47a2.87,2.87,0,0,1,.53-.45,3.31,3.31,0,0,0,.47-.45,6.32,6.32,0,0,1,.54-.4l.16.29c-.31.22-.56.44-.85.61s-.5.51-.83.7S17.49,34,17.15,34.14Z"/><path d="M24.14,14.82l-.24-.25c.12-.91.26-1.8.43-2.74l.07.29c0,.09.1.24.08.26s0,.2,0,.27,0,.19,0,.3a.5.5,0,0,0,0,.4c.07.22-.21.4,0,.62-.15.1-.05.19,0,.28-.13.07-.08.2-.1.31A1.1,1.1,0,0,1,24.14,14.82Z"/><path d="M18.23,30.69v.38c-.67.54-1,1.41-1.8,1.92,0-.31.26-.45.31-.69.51-.41.74-1.06,1.26-1.46A1.85,1.85,0,0,1,18.23,30.69Z"/><path d="M28.06,33.21a1.86,1.86,0,0,1,0,.41c-.05.27.12.51.11.77s.18.44.27.65a2.48,2.48,0,0,1,.13.35.19.19,0,0,1-.09.16c-.17-.42-.61-.66-.66-1.13,0-.05-.06-.09-.06-.13V33Z"/><path d="M25.9,14.8c-.15-.13-.27-.19-.28-.26-.06-.24-.07-.48-.12-.72A9.43,9.43,0,0,1,25.4,12a.33.33,0,0,1,.08-.24c0,.3.08.6.13.9,0,.08,0,.15.05.23A8.08,8.08,0,0,1,25.9,14.8Z"/><path d="M22.06,15.26a1.76,1.76,0,0,1-.12-.34,2.73,2.73,0,0,0-.64-1.51c-.2-.23-.38-.48-.62-.78.12,0,.2.06.25.11.28.26.55.54.82.82A1.84,1.84,0,0,1,22.24,15s0,.05,0,.08S22.12,15.18,22.06,15.26Z"/><path d="M29.73,31.28c-.1.07-.17.16-.23.16a.34.34,0,0,0-.3.15,3.17,3.17,0,0,1-1.2.67c-.32.14-.65.25-1,.37,0,0-.1,0-.13,0a.69.69,0,0,0-.53,0,2.26,2.26,0,0,1-.65,0c.17-.1.24-.18.32-.19a2.88,2.88,0,0,1,.51,0,.79.79,0,0,0,.47-.09.56.56,0,0,1,.34-.07c.09,0,.21-.07.31-.12l.35-.14.45-.15.16-.22c.17,0,.3,0,.32-.07.14-.25.38-.29.61-.36C29.59,31.24,29.63,31.26,29.73,31.28Z"/><path d="M32.62,17.79l-.37-.11a.53.53,0,0,1,0-.11,13.64,13.64,0,0,0,1.08-1.33c.2-.29.43-.55.7-.89a1.05,1.05,0,0,1-.32.85c-.29.33-.52.7-.8,1A1.21,1.21,0,0,0,32.62,17.79Z"/><path d="M13.56,28.18l.74-.59a.45.45,0,0,1,.21-.1c.28,0,.48-.19.72-.22a6.28,6.28,0,0,1,.87,0v.27l-.25.13c-.21-.18-.47-.05-.68-.09-.43.27-.92.32-1.31.61C13.82,28.21,13.73,28.18,13.56,28.18Z"/><path d="M33.68,19.16c.16.2.34.13.5.14h.51a4.34,4.34,0,0,1,.51,0c.18,0,.3-.1.47-.1.06.23.3-.18.36.14a2.21,2.21,0,0,1-.35.16c-.17,0-.34,0-.51,0s-.3.12-.42.08-.35.29-.53,0a1,1,0,0,1-.57-.09c-.07-.05-.19,0-.39,0Z"/><path d="M13.81,18.78c.66.11,1.16.41,1.71.53a1,1,0,0,1,.4.26c.14.12.26.26.38.37v.38a.63.63,0,0,1-.16,0c-.18-.1-.22-.33-.42-.44a2.83,2.83,0,0,1-.47-.45A3.28,3.28,0,0,1,13.81,18.78Z"/><path d="M32.09,29.51c.17-.62.66-1.05.81-1.7a15,15,0,0,0,.6-1.75l.15,0a1,1,0,0,1-.07.62c-.23.5-.42,1-.62,1.53,0,0,0,.15,0,.18-.24.22-.27.55-.47.78A4.4,4.4,0,0,1,32.09,29.51Z"/><path d="M30.66,20.52l-.18.19s-.06,0-.07,0a1.31,1.31,0,0,0-1.09-.75,2.54,2.54,0,0,0-1.73.29.18.18,0,0,1,.11-.29c.42,0,.79-.28,1.23-.23a5.2,5.2,0,0,1,.89.18A2.15,2.15,0,0,1,30.66,20.52Z"/><path d="M16.36,25.33h.11a7.58,7.58,0,0,1,.34,1.12,5.26,5.26,0,0,0,.37,1.12c.15.36.31.72.52,1.2-.16-.13-.23-.16-.27-.29s-.14-.18-.19-.28a8.88,8.88,0,0,1-.62-1.73c0-.18-.12-.36-.16-.54S16.4,25.55,16.36,25.33Z"/><path d="M20.57,34.77a11.1,11.1,0,0,1,1.5-1.67h.31a13.41,13.41,0,0,1-1.65,1.71S20.65,34.79,20.57,34.77Z"/><path d="M18.19,19.09c-.05,0-.07,0-.08,0L18,19s.09-.12.15-.17a3.58,3.58,0,0,0,.7-.89,1.71,1.71,0,0,1,.46-.47c.15-.11.36-.16.48-.3s.31-.19.41-.38.29-.15.52-.25a1.7,1.7,0,0,1-.13.21s-.07,0-.09,0a6.32,6.32,0,0,1-1.16.9.26.26,0,0,0-.09.09l-.39.5c-.15.18-.33.33-.47.51S18.27,19,18.19,19.09Z"/><path d="M33,20.1c.32.24.35.6.49.9s.09.45.3.58c0,.54.36,1,.18,1.57l-.14.05a4.4,4.4,0,0,0-.09-.83c-.07-.26-.12-.53-.18-.79s-.29-.42-.27-.7S32.88,20.47,33,20.1Z"/><path d="M25.51,25.53c.13,0,.29,0,.38-.05s.23.14.3-.07l0,.17a5.19,5.19,0,0,0-1.18.35.29.29,0,0,1-.24,0c-.13-.12-.29,0-.43-.07l-.37-.3c.38,0,.64.3,1,.17l-.62-.29c.38-.09.75.17,1.14-.1Z"/><path d="M20.06,31.33a4,4,0,0,1-1.47-1c0-.37-.46-.48-.43-.87.27,0,.23.38.48.41a1.33,1.33,0,0,0,.39.6,3.4,3.4,0,0,0,.52.49A1,1,0,0,1,20.06,31.33Z"/><path d="M16.89,20.83c-.05.3-.24.53-.29.83A7.57,7.57,0,0,0,16.42,23c0,.16,0,.3-.21.39,0-.2,0-.37.09-.58a1.19,1.19,0,0,0,0-.65,3.32,3.32,0,0,1,.21-1C16.55,21,16.64,21,16.89,20.83Z"/><path d="M32.07,18.79c-.28-.34-.52-.54-.71-.81a3.16,3.16,0,0,0-.66-.55L29.9,17l.14-.15A4.36,4.36,0,0,1,32.07,18.79Z"/><path d="M17.15,25.46c0-.06-.09-.11-.1-.17a8,8,0,0,1-.2-2.2l.25-.15c0,.18-.13.29,0,.47s0,.32,0,.49-.08.33.09.46,0,.07,0,.1a1.6,1.6,0,0,0,.1.72c0,.06,0,.16,0,.23Z"/><path d="M19.75,34.12,19.59,34a6.33,6.33,0,0,0,.47-.72c.13-.31.42-.41.6-.69l.18.22c-.18.23-.42.41-.61.64S19.91,33.88,19.75,34.12Z"/><path d="M20.71,31.14a1,1,0,0,1,.6.27,3.2,3.2,0,0,0,.72.35c.12,0,.21.16.33.19s.43.1.69.16v.16c-.23.16-.44,0-.63-.09l-.67-.34A2.81,2.81,0,0,1,20.71,31.14Z"/><path d="M23.33,21.35s-.13,0-.16-.05a3.58,3.58,0,0,0-1.3-.67c-.08,0-.2,0-.34.06l-.2-.31a.66.66,0,0,0,.48.09.87.87,0,0,1,.41.09,3.34,3.34,0,0,1,.44.17A1.69,1.69,0,0,1,23,21c.12.1.23.22.34.33Z"/><path d="M21.54,31.17c.67.34,1.33.38,1.92.64V32a9.35,9.35,0,0,1-1.41-.34C21.86,31.57,21.72,31.42,21.54,31.17Z"/><path d="M28.44,20.5l.17-.17c.15.21.44,0,.6.18.22-.15.36.07.52.13s.44.16.48.48c-.08,0-.17,0-.21,0a1.5,1.5,0,0,0-1.12-.46A1.72,1.72,0,0,1,28.44,20.5Z"/><path d="M23,21.74c-.53-.21-.92-.69-1.53-.6l0-.16,0,0c.43-.09.73.2,1.07.34A.62.62,0,0,1,23,21.74Z"/><path d="M37.91,19a.53.53,0,0,1,.14-.61,10,10,0,0,1,.82-.58s.08,0,.17.06c-.12.13-.2.28-.32.34A1.42,1.42,0,0,0,37.91,19Z"/><path d="M33.06,25.71c0-.2.07-.44,0-.59s0-.39,0-.58A2.38,2.38,0,0,1,33.2,24l.14.14a5.86,5.86,0,0,0-.17.75,8,8,0,0,0,0,.85Z"/><path d="M26.84,22.44l.51.7C27,23.16,26.75,22.93,26.84,22.44Z"/><path d="M20.2,30.73h-.15c-.13-.36-.57-.5-.65-.92a.5.5,0,0,1,.16,0l.63.8S20.2,30.7,20.2,30.73Z"/><path d="M32.52,24.12,32.38,24c.15-.35,0-.73.09-1.13a1.08,1.08,0,0,1,.18.07,1.65,1.65,0,0,1,0,.58A2.22,2.22,0,0,0,32.52,24.12Z"/><path d="M17.75,23.07l-.14,1.32a1.4,1.4,0,0,1-.06-.7C17.56,23.49,17.43,23.23,17.75,23.07Z"/><path d="M27.74,31.23v.23a1,1,0,0,0-.84.24l-.15-.21Z"/><path d="M28.26,31.53a.92.92,0,0,1-.9.43v-.21A1.41,1.41,0,0,0,28.26,31.53Z"/><path d="M28.16,31.57l1-.63a.79.79,0,0,1-.08.22A1.34,1.34,0,0,1,28.16,31.57Z"/><path d="M21.63,31.24a1,1,0,0,1-.82-.51A1.75,1.75,0,0,1,21.63,31.24Z"/><path d="M22.17,32.31c.19.18.44.12.57.31,0,0,0,.09,0,.18l-.6-.27Z"/><path d="M21.08,32.1l.19-.12.62.34C21.51,32.44,21.34,32.17,21.08,32.1Z"/><path d="M34.66,14.58c.17.31-.22.38-.17.65l-.25-.06Z"/><path d="M24.56,33.21l-1-.25v-.07c.27,0,.53.07.79.12C24.41,33,24.45,33.1,24.56,33.21Z"/><path d="M22.7,31.35c-.18-.1-.44-.09-.47-.37C22.67,31.1,22.67,31.1,22.7,31.35Z"/><path d="M19.45,34.85c-.18-.27,0-.44.05-.67l.17.16Z"/><path d="M26.89,20.68l-.45.56-.16-.06A1.11,1.11,0,0,1,26.89,20.68Z"/><path d="M26.54,32.09c.15-.12.3-.32.59-.14A1,1,0,0,1,26.54,32.09Z"/><path d="M41.75,24a2.68,2.68,0,0,1-.48.13,1.16,1.16,0,0,1-.36-.14c.14,0,.32-.15.39-.1S41.6,23.83,41.75,24Z"/><path d="M25.28,39.61c-.28-.08-.28-.09-.25-.38l.25.12Z"/><path d="M25.07,38.62l.27.3c-.07,0-.11.09-.14.08l-.35-.1Z"/><path d="M17.16,34.11l-.22.52a1,1,0,0,1-.11-.29C16.85,34.17,17,34.08,17.16,34.11Z"/><path d="M34.69,14.61v-.26c.11-.08.17-.26.43-.26Z"/><path d="M33.82,23.81l-.15-.5c.26,0,.19.29.38.41Z"/><path d="M17.15,25.54h.17v.39h-.17Z"/><path d="M16.13,33.44c0,.28-.13.34-.32.38C15.79,33.58,15.92,33.53,16.13,33.44Z"/><path d="M20.36,31.64a.63.63,0,0,1,.52.29A.64.64,0,0,1,20.36,31.64Z"/><path d="M33.69,24.61a.27.27,0,0,1,.16.4h-.16Z"/><path d="M20.71,30.53c-.2,0-.3-.08-.32-.31C20.62,30.24,20.72,30.33,20.71,30.53Z"/><path d="M32.05,18.65c.12.14.29.21.27.42C32.2,19,32,18.92,32.05,18.65Z"/><path d="M16.08,33.09h.22v.29C16,33.41,16.17,33.2,16.08,33.09Z"/><path d="M33.08,23.41c.26-.11.15.2.29.23l-.16.14Z"/><path d="M13.12,30.07l.47-.35-.18.4Z"/><ellipse cx="17.64" cy="24.66" rx="0.12" ry="0.2"/><path d="M19.21,35.44l-.09-.21.13-.27,0,.45Z"/><path d="M19.53,38.56l.24-.32v.36Z"/><path d="M16.4,24.87l-.23-.33.23,0Z"/><path d="M25.18,40.28,25,40l.23,0Z"/><path d="M14.49,36.6v-.33s.12,0,.14,0S14.7,36.35,14.49,36.6Z"/><path d="M21.79,30.78l-.32-.23h.37Z"/><path d="M20,20.48l-.23.05v-.36Z"/><path d="M21.17,16.36l-.32.23-.05-.23Z"/><path d="M20.58,35.24c-.22-.09-.22-.09,0-.35Z"/><path d="M20.45,35.82c-.07.06-.11.12-.13.12a.31.31,0,0,1-.12-.11s.05-.09.07-.09S20.37,35.78,20.45,35.82Z"/><path d="M14.19,37a.64.64,0,0,1-.11-.16s0-.07.07-.1a.58.58,0,0,1,.12.1S14.23,36.93,14.19,37Z"/><path d="M32.89,20l-.15-.26.06-.05a.52.52,0,0,1,.11.1A.76.76,0,0,1,33,20Z"/><path d="M27.43,20v.38h-.17Z"/><path d="M33,26.27v-.42l.08,0C33,26,33.13,26.16,33,26.27Z"/><path d="M33.88,25.48c-.18.11-.22,0-.31-.11C33.75,25.26,33.79,25.41,33.88,25.48Z"/><path d="M28.59,23.58l.33,0-.22.18Z"/><path d="M12.31,30.58a.46.46,0,0,1-.07-.18s.08-.08.09-.07a.38.38,0,0,1,.1.12S12.38,30.51,12.31,30.58Z"/><path d="M23.93,30.41c-.08.06-.12.12-.13.11a.21.21,0,0,1-.13-.1s0-.09.08-.09S23.84,30.37,23.93,30.41Z"/><path d="M25,40.76l.14-.14,0,.3-.07,0Z"/><path d="M29.49,23.53c-.09.07-.12.23-.31.11C29.27,23.58,29.3,23.42,29.49,23.53Z"/><path d="M20.71,31.14a.25.25,0,0,1-.31-.2A.25.25,0,0,1,20.71,31.14Z"/><path d="M21.88,23.46c-.07.07-.11.13-.13.12a.38.38,0,0,1-.12-.1s.05-.09.07-.09A.71.71,0,0,1,21.88,23.46Z"/><path d="M32,23.44c0-.09-.08-.14-.08-.18s.09-.08.1-.08a.32.32,0,0,1,.1.13S32.08,23.37,32,23.44Z"/><path d="M22.32,23.12c.06.08.12.12.12.13a.32.32,0,0,1-.1.13s-.1-.05-.1-.08S22.28,23.21,22.32,23.12Z"/><path d="M17,22.45l.1.21-.13.13,0-.3Z"/><path d="M28.72,22.6l-.12.25C28.59,22.57,28.59,22.57,28.72,22.6Z"/><path d="M23.36,32.37c-.1,0-.26.09-.31-.1C23.16,32.3,23.31,32.17,23.36,32.37Z"/><path d="M20.65,23.82l-.13-.22C20.65,23.58,20.77,23.55,20.65,23.82Z"/><path d="M30,31l-.22.14C29.79,31,29.76,30.88,30,31Z"/><path d="M23.58,32.32s-.06.12-.1.14-.13,0-.07-.09l.1-.1Z"/><path d="M33.15,22.94,33,22.79C33.12,22.74,33.19,22.76,33.15,22.94Z"/><path d="M27.44,23.33c.19-.1.21,0,.21.2Z"/><path d="M20.52,31.65c-.26,0-.38,0-.3-.19Z"/><path d="M16.93,22.11s0-.06.07-.07l.13,0c0,.05,0,.11,0,.13s-.09,0-.13,0Z"/><path d="M27.67,20.94l-.3.19C27.29,20.93,27.41,20.93,27.67,20.94Z"/><path d="M27.55,21.05c0-.25,0-.38.19-.29Z"/><path d="M28.19,20.58l-.22.13C28,20.58,27.92,20.46,28.19,20.58Z"/><path d="M15,35.88l-.12.25C14.91,35.84,14.91,35.84,15,35.88Z"/><path d="M30.34,30.35l.09.25C30.33,30.63,30.33,30.63,30.34,30.35Z"/><ellipse cx="20.96" cy="23.69" rx="0.04" ry="0.14"/><ellipse cx="32.81" cy="26.65" rx="0.04" ry="0.14"/><ellipse cx="21.32" cy="23.64" rx="0.14" ry="0.04"/><ellipse cx="28.26" cy="23.64" rx="0.14" ry="0.04"/><path d="M20.71,30.53c.15,0,.08.13.1.2C20.66,30.73,20.72,30.61,20.71,30.53Z"/><path d="M16.3,24h-.17v-.05l.17,0Z"/><path d="M32.53,27.41l.07-.25a.78.78,0,0,1,0,.14S32.61,27.34,32.53,27.41Z"/><path d="M32.84,26.49l.07-.25a1.21,1.21,0,0,1,.05.14S32.92,26.42,32.84,26.49Z"/><path d="M15.68,34.09h-.16V34l.17,0Z"/><path d="M21,20.71h-.17v-.05l.17,0Z"/><path d="M23.18,32.79h.16v.05l-.17,0Z"/><path d="M36.33,19.12l.19,0v.07l-.2,0Z"/><path d="M25.59,39.19h-.17v0l.17,0Z"/><path d="M20.4,30.94l-.1-.1Z"/><path d="M20.14,23.48l0,.07,0,0,0-.07Z"/><path d="M28,23.54l-.07,0,0,0,.07,0Z"/><path d="M39,29.29l0,0,.07,0s0,0,0,0Z"/><path d="M20.2,30.73l.1.11Z"/><path d="M16.86,20.54l.07,0,0,0-.07,0Z"/><path d="M16.45,34.83l.07,0,0,0a.15.15,0,0,1-.07,0Z"/><path d="M21.11,32.07,21,32l0,0,.08.08Z"/><path d="M37.57,28.83l0,0,0,.07s0,0,0,0Z"/><path d="M12,30.77l0,.07s0,0,0,0a.43.43,0,0,0,0-.07Z"/><path d="M13.67,28.19l-.07.08,0,0,.08-.07Z"/><path d="M21.18,20.61l-.07,0,0,0,.07,0Z"/><path d="M32.64,27.15l.07-.08,0,0-.09.07Z"/><path d="M19.82,38l.07,0,0,0-.07,0Z"/><path d="M27,20.54l0,0-.07,0,0,0Z"/><path d="M32.74,26.92l0,0,0-.07s0,0,0,0Z"/><path d="M21.64,16.1l0-.07,0,0,0,.07Z"/><path d="M30.41,10.26l-.07,0s0,0,0,0l.07,0Z"/><path d="M36.34,19.21l-.07.08,0,0,.08-.07Z"/><path class="cls-3" d="M25.22,28.22c.33,0,.65-.25,1-.1A1.13,1.13,0,0,1,25.22,28.22Z"/><path class="cls-3" d="M24.26,28.52c.13-.31.23-.35.88-.32l-.25.14-.26.13C24.48,28.39,24.48,28.39,24.26,28.52Z"/><path class="cls-3" d="M24.4,27.89h.68A.85.85,0,0,1,24.4,27.89Z"/><path class="cls-3" d="M25.61,27.8H26v.05h-.4Z"/><path class="cls-3" d="M25.61,28h-.4V27.9h.4Z"/><path class="cls-3" d="M26.41,27.91l0,.07,0,0,0-.06Z"/><path class="cls-3" d="M21.35,22.34l-.28,0-.33-.4.24-.18C21,22,21.17,22.15,21.35,22.34Z"/><path class="cls-3" d="M21.44,22.16l-.14-.4h.29C21.67,22,21.61,22.09,21.44,22.16Z"/><path class="cls-1" d="M21.32,22.26l.1-.1Z"/><path class="cls-3" d="M28.75,21.34l.41.14-.21.44-.41.13-.38-.21a2.61,2.61,0,0,1,0-.28.23.23,0,0,1,.27-.21c-.11.33-.11.33.18.5C28.84,21.73,28.41,21.44,28.75,21.34Z"/><path class="cls-3" d="M26,29.65l0,0,0,.07s0,0,0,0Z"/><path class="cls-3" d="M25,25.69l.25-.09C25.29,25.71,25.29,25.71,25,25.69Z"/><path class="cls-3" d="M25.52,25.54l-.08.08,0,0,.09-.07Z"/></g></svg>