<svg xmlns="http://www.w3.org/2000/svg" viewBox="0 0 152.89 81"><defs><style>.cls-1{fill:#e1daac;stroke:#fff;stroke-miterlimit:10;stroke-width:0.53px;}</style></defs><title>vppwhite</title><g id="Layer_2" data-name="Layer 2"><path class="cls-1" d="M133.68,51c-.25.34-1.3-.48-2.39.27-.62.11-.83.22-1.07.07-.5-.3-.61-1.41-.13-2.16,1.54,0,1.2-.93,1.88-.83C133.68,49,133.55,50.23,133.68,51ZM114.17,23.26c-.18,1.08,2.24,1.6,3.39,1C117.1,23.35,113.94,22.13,114.17,23.26Zm-33,4.45v10.1c.3,0,.55,0,.76,0a2.42,2.42,0,0,0,2-.69,5.24,5.24,0,0,0,.55-2.91V31a3.85,3.85,0,0,0-.64-2.65A4,4,0,0,0,81.14,27.71Zm-25.2,0v10.1c.29,0,.54,0,.76,0a2.41,2.41,0,0,0,2-.69,5.15,5.15,0,0,0,.55-2.91V31a3.86,3.86,0,0,0-.63-2.65A4,4,0,0,0,55.94,27.71ZM148,3.57V77.43H5V3.57ZM43.87,20.92H33l-.72,7.38q-.9,8.89-1.7,20.37-.81-11.36-2.71-27.75H17l6,39.69H38.62Zm24,11.1a27.11,27.11,0,0,0-.4-5.5,6.54,6.54,0,0,0-1.55-3,7.24,7.24,0,0,0-3.4-1.91A24.57,24.57,0,0,0,56,20.92H45.61V60.61H55.94v-16h2.77a13.49,13.49,0,0,0,5.48-.94A5.41,5.41,0,0,0,67.07,41a14.48,14.48,0,0,0,.78-5.54Zm25.21,0a27,27,0,0,0-.41-5.5,6.53,6.53,0,0,0-1.54-3,7.28,7.28,0,0,0-3.41-1.91,24.46,24.46,0,0,0-6.49-.66H70.82V60.61H81.14v-16h2.77a13.46,13.46,0,0,0,5.48-.94A5.34,5.34,0,0,0,92.27,41a14.25,14.25,0,0,0,.79-5.54Zm47.77,18.32c-.08-.27-2.16,1.4-3.33.7-1.93-1.14,1.1-7-.83-7.89-.5-.19-.64,1-1.81,1.65.22,1.42.44,2.31.08,2.56-.21.55-1-.19-2.11-.9-.07-.17.31-1.26-1.57-.38-4.42-1.9-2.49-8.57-2.49-8.57,1.1-1.89,0-8.16-1.05-14.44,4.89-4.21,6.43-13.57,2.33-19.32-.86,3.61-4.56,1-9.55,2.11-.16.19-.26.35-.6.75-4.3-.27-4.66,1.84-3.91,3.68-.61,1.49.17,2.14.38,3.54.49,1.1,0,3.21.3,4,.18.16.67,0,.75,0,.31,1.64,1,2.71,3.16,2.11A2.91,2.91,0,0,1,118.47,24c-.42-.26-1.42-3-6-2.41-.06.09-.82,3.51,4.06,4.36.25,1,.88,2.48-4,3.31-2.07,1.48.93,3.51-4.36,3.68-.76,1,4.66,2.5,5.12-2,1.2,0,2.25-1.26,2.4-.75.89,1.06-8,12-13.46,18.64.3,1.53,1.08,1.83,3.54,2,1.58,1.28-4.11,2.78,5,5.27,1.35,1.87.68,3,5.94,2.7-.33,3.59,4.23,3.91,2.86,13.76-2.19,2.6-6.44,1.66-6.47,2.33-2.29,2,8.11,4.12,13.46.6-.09-8.24,2.61-6.19,2.78-14.28C131.78,60.24,143.74,60.54,140.83,50.34Z"/></g></svg>